<?xml version="1.0" encoding="utf-8"?>
<!-- Generator: Adobe Illustrator 19.2.1, SVG Export Plug-In . SVG Version: 6.00 Build 0)  -->
<svg version="1.1" id="Ebene_1" xmlns="http://www.w3.org/2000/svg" xmlns:xlink="http://www.w3.org/1999/xlink" x="0px" y="0px"
	 viewBox="0 0 52 52" style="enable-background:new 0 0 52 52;" xml:space="preserve">
<style type="text/css">
	.st0{display:none;}
	.st1{display:inline;}
	.st2{fill:none;stroke:#020203;stroke-linecap:round;stroke-linejoin:round;stroke-miterlimit:10;}
	.st3{fill:none;stroke:#FFFFFF;stroke-linecap:round;stroke-linejoin:round;stroke-miterlimit:10;}
	.st4{fill:none;stroke:#FFFFFF;stroke-linecap:round;stroke-linejoin:round;stroke-miterlimit:10;stroke-dasharray:2,2;}
</style>
<g id="Ebene_1_Kopie" class="st0">
	<g class="st1">
		<path class="st2" d="M38.5,25.3c3.5,0,7.2-1.4,7.2-1.4s-0.8-13-3.6-15.2C39.3,6.4,32.7,5,32.7,5c0,1.9-3.2,4.3-6.5,4.3
			S19.7,6.9,19.7,5c0,0-6.6,1.4-9.4,3.6S6.7,23.8,6.7,23.8s3.8,1.4,7.2,1.4"/>
		<path class="st2" d="M40,13.7c-1.1,1.1-1.4,3.5-1.4,5.8s0,25.3,0,25.3s-4,2.2-12.4,2.2s-12.3-1.4-12.3-1.4s0-23.8,0-26.1
			s-0.4-4.7-1.4-5.8"/>
		<path class="st2" d="M19.7,5c0,0,4.9,0.7,6.5,0.7S32.7,5,32.7,5"/>
	</g>
</g>
<g id="Ebene_5" class="st0">
	<g id="XMLID_1_" class="st1">
		<path id="XMLID_10_" class="st2" d="M18.2,12.7v3.6l3.2,2.4c1.9,0.6,3.7,1.6,5.1,3.1c0.6-10.6-9-16.8-14.8-11.2l3.6,3.6L18.2,12.7
			z"/>
		<path id="XMLID_9_" class="st2" d="M26.6,21.8c-6.2-5.7-18.5-3.6-18.5,4l5.3-1.3l1.2-2.4L16,24L26.6,21.8z"/>
		<path id="XMLID_8_" class="st2" d="M35.6,12.7v3.6l-3.9,2.4c-1.9,0.6-3.7,1.6-5.1,3.1c0.1-9,8.8-17.4,14.8-11.2l-3.6,3.6
			L35.6,12.7z"/>
		<path id="XMLID_7_" class="st2" d="M26.6,21.8c5.1-5.3,17.9-4,17.7,4l-4.6-1.3l-1.2-3.1l-1.4,2.9L26.6,21.8z"/>
		<polyline id="XMLID_6_" class="st2" points="24.7,22.7 22.6,47.5 29.8,47.5 28.4,22.7 		"/>
		<line id="XMLID_5_" class="st2" x1="23.3" y1="41.7" x2="29.1" y2="41.7"/>
		<line id="XMLID_4_" class="st2" x1="24" y1="35.9" x2="28.4" y2="35.9"/>
		<line id="XMLID_3_" class="st2" x1="24" y1="30.8" x2="28.4" y2="30.8"/>
		<line id="XMLID_2_" class="st2" x1="24.7" y1="25.1" x2="28.4" y2="25.1"/>
	</g>
</g>
<g id="Ebene_6">
	<g>
		<path class="st3" d="M16.8,11.3c0,3.2-5.8,11.6-5.8,11.6s-5.8-8.4-5.8-11.6S7.8,5.5,11,5.5S16.8,8.1,16.8,11.3z"/>
		<path class="st3" d="M47.2,30.5c0,4.2-7.2,17-7.2,17s-7.2-12.9-7.2-17c0-4.2,3.2-7.6,7.2-7.6S47.2,26.3,47.2,30.5z"/>
		<path class="st4" d="M37.1,47.5c-20.4,0-3.5-26.1-23.2-26.1"/>
		<circle class="st3" cx="11" cy="11.3" r="1.4"/>
		<circle class="st3" cx="40" cy="30.1" r="2.9"/>
	</g>
</g>
<g id="Ebene_7" class="st0">
	<g class="st1">
		<line class="st2" x1="26.2" y1="5.5" x2="26.2" y2="8.4"/>
		<line class="st2" x1="16.1" y1="8.2" x2="17.5" y2="10.7"/>
		<line class="st2" x1="8.6" y1="15.6" x2="11.1" y2="17.1"/>
		<line class="st2" x1="5.9" y1="25.8" x2="8.8" y2="25.8"/>
		<line class="st2" x1="8.6" y1="35.9" x2="11.1" y2="34.5"/>
		<line class="st2" x1="16.1" y1="43.3" x2="17.5" y2="40.8"/>
		<line class="st2" x1="26.2" y1="46.1" x2="26.2" y2="43.2"/>
		<line class="st2" x1="36.3" y1="43.3" x2="34.9" y2="40.8"/>
		<line class="st2" x1="43.8" y1="35.9" x2="41.2" y2="34.5"/>
		<line class="st2" x1="46.5" y1="25.8" x2="43.6" y2="25.8"/>
		<line class="st2" x1="43.8" y1="15.6" x2="41.2" y2="17.1"/>
		<line class="st2" x1="36.3" y1="8.2" x2="34.9" y2="10.7"/>
		<path class="st2" d="M5.9,25.8C5.9,37,15,46.1,26.2,46.1S46.5,37,46.5,25.8S37.4,5.5,26.2,5.5v20.3H5.9z"/>
	</g>
</g>
<g id="Ebene_3" class="st0">
	<g class="st1">
		<path class="st2" d="M26.2,16.4L24.8,5.5l-1.1,8.8c-0.1,0.8-0.7,1.4-1.5,1.4s-1.4-0.6-1.5-1.4l-1.1-8.8l-0.5,8.8
			c-0.1,0.8-0.7,1.4-1.5,1.4s-1.4-0.6-1.5-1.4l-0.9-8.8L13,16.4c-0.5,3.1,1.5,5.6,4.3,6.5l-1.4,21c0,2.4,1.7,3.6,3.6,3.6l0,0
			c2.6,0,3.6-1.6,3.6-3.6l-1.4-21C24.7,22,26.7,19.5,26.2,16.4z"/>
		<path class="st2" d="M39.3,5.5v38.4c0,1.9-1.7,3.6-3.6,3.6l0,0c-2,0-3.8-1.8-3.6-3.8l1.4-15l1.4-1.4c0,0-2.9-2.6-2.9-10.9
			S39.3,5.5,39.3,5.5z"/>
	</g>
</g>
<g id="Ebene_4" class="st0">
	<g class="st1">
		<path class="st2" d="M38.5,17.1c0-6.5-6-11.6-12.5-11.6s-12.1,5.1-12.1,11.6c0,0.9,0.1,1.7,0.3,2.5c-0.2,0.6-0.3,1.3-0.3,2
			c0,2,0.8,3.6,1.8,3.6c0.2,0,0.7,0.1,0.9,0c1.3,5.4,5,9.2,9.4,9.2s8.8-4,10.1-9.4c0.2,0.1,0.3,0.2,0.5,0.2c1,0,1.8-1.6,1.8-3.6
			c0-0.7-0.1-1.4-0.3-2C38.4,18.8,38.5,18,38.5,17.1z"/>
		<path class="st2" d="M39.5,34.1l-4.7-0.9c-2.4,2.6-5.5,4.2-8.9,4.2s-6.5-1.5-8.9-4.2l-4.7,0.9C7.9,35.6,5,41.2,5,45.8v1.7h42v-1.3
			C47.2,41.6,43.9,35.6,39.5,34.1z"/>
		<path class="st2" d="M14.6,20c1.1,0,2.2,0,2.2,0s0.1-5.8,1.4-5.8s5.8,0.9,5.8-2.9c0,1.6,4.6,5.8,10.1,5.8c0,1.6,1.4,2.9,1.4,2.9
			h2.2"/>
		<line class="st2" x1="21.1" y1="21.4" x2="22.6" y2="21.4"/>
		<line class="st2" x1="29.8" y1="21.4" x2="31.3" y2="21.4"/>
	</g>
</g>
<g id="Ebene_8">
</g>
</svg>
