<?xml version="1.0" encoding="utf-8"?>
<!-- Generator: Adobe Illustrator 20.1.0, SVG Export Plug-In . SVG Version: 6.00 Build 0)  -->
<svg version="1.1" id="Ebene_1" xmlns="http://www.w3.org/2000/svg" xmlns:xlink="http://www.w3.org/1999/xlink" x="0px" y="0px"
	 viewBox="0 0 60 60" style="enable-background:new 0 0 60 60;" xml:space="preserve">
<style type="text/css">
	.st0{display:none;}
	.st1{display:inline;fill:#FFFFFF;}
	.st2{display:inline;}
	.st3{fill:#002049;}
</style>
<g id="Ebene_1_1_" class="st0">
	<rect class="st1" width="60" height="60"/>
</g>
<g id="Ebene_1_Kopie" class="st0">
	<g class="st2">
		<g>
			<path class="st3" d="M29.5,27.5c-4.3,0-7.8-3.5-7.8-7.8s3.5-7.8,7.8-7.8s7.8,3.5,7.8,7.8S33.8,27.5,29.5,27.5z M29.5,13.7
				c-3.3,0-6,2.7-6,6s2.7,6,6,6s6-2.7,6-6S32.8,13.7,29.5,13.7z"/>
		</g>
		<g>
			<path class="st3" d="M30,52.7c-0.3,0-0.6-0.2-0.8-0.4c-0.6-1-14.8-24.8-14.8-32.6C14.4,11.6,21.4,5,30,5s15.6,6.6,15.6,14.7
				c0,7.8-14.2,31.5-14.8,32.6C30.6,52.5,30.3,52.7,30,52.7z M30,6.8c-7.6,0-13.8,5.8-13.8,12.8c0,6.3,10.7,25.1,13.8,30.3
				c3-5.2,13.8-24,13.8-30.3C43.8,12.6,37.6,6.8,30,6.8z"/>
		</g>
		<g>
			<path class="st3" d="M30,60c-9.6,0-19.2-2.2-19.2-6.4c0-3.6,7.2-5.6,13.9-6.2c0.5,0,0.9,0.3,1,0.8c0,0.5-0.3,0.9-0.8,1
				c-8.4,0.8-12.2,3-12.2,4.4c0,1.9,6.6,4.6,17.4,4.6s17.4-2.7,17.4-4.6c0-1.3-3.8-3.6-12.2-4.4c-0.5,0-0.9-0.5-0.8-1
				c0-0.5,0.5-0.9,1-0.8c6.7,0.6,13.9,2.5,13.9,6.2C49.2,57.8,39.6,60,30,60z"/>
		</g>
	</g>
</g>
<g id="Ebene_4" class="st0">
	<g class="st2">
		<g>
			<path class="st3" d="M36.8,60H8.9C4,60,0,55.9,0,51c0-4.6,3.5-8.4,8-8.9c0-0.2,0-0.4,0-0.6c0-8.4,6.9-15.3,15.3-15.3
				c7,0,12.9,4.6,14.7,11.2c5.7,0.6,10.1,5.4,10.1,11.3C48.1,54.9,43,60,36.8,60z M8.9,44.1C5.1,44.1,2,47.2,2,51s3.1,7,6.9,7h27.8
				c5.1,0,9.3-4.2,9.3-9.3c0-5-3.9-9.1-8.9-9.3c-0.5,0-0.8-0.3-0.9-0.8c-1.4-6.1-6.7-10.4-13-10.4c-7.3,0-13.3,6-13.3,13.3
				c0,0.5,0,1,0.1,1.5c0,0.3-0.1,0.6-0.3,0.8C9.5,44,9.2,44.1,8.9,44.1L8.9,44.1z"/>
		</g>
		<g>
			<path class="st3" d="M50.5,53.8c-0.5,0-0.9-0.3-1-0.8s0.3-1.1,0.8-1.2c4.5-0.8,7.7-4.6,7.7-9.2c0-5-3.9-9.1-8.9-9.3
				c-0.5,0-0.8-0.3-0.9-0.8c-1.4-6.1-6.7-10.4-13-10.4c-2.7,0-5.3,0.8-7.5,2.3c-0.5,0.3-1.1,0.2-1.4-0.3s-0.2-1.1,0.3-1.4
				c2.5-1.7,5.5-2.6,8.6-2.6c7,0,12.9,4.6,14.7,11.2C55.6,32,60,36.8,60,42.6c0,5.5-3.9,10.2-9.4,11.1
				C50.6,53.8,50.5,53.8,50.5,53.8z"/>
		</g>
	</g>
</g>
<g id="Ebene_5">
	<g>
		<g>
			<path class="st3" d="M34.2,19.2h-8.3c-0.5,0-0.8-0.4-0.8-0.8c0-0.4,0.4-0.8,0.8-0.8h8.3c0.5,0,0.8,0.4,0.8,0.8
				C35,18.8,34.6,19.2,34.2,19.2z"/>
		</g>
		<g>
			<path class="st3" d="M49.3,25.9H10.9c-0.5,0-0.8-0.4-0.8-0.8s0.4-0.8,0.8-0.8h38.3c0.5,0,0.8,0.4,0.8,0.8S49.7,25.9,49.3,25.9z"
				/>
		</g>
		<g>
			<path class="st3" d="M20.8,22.6c-0.5,0-0.8-0.4-0.8-0.8v-5c0-0.5,0.4-0.8,0.8-0.8c0.5,0,0.8,0.4,0.8,0.8v5
				C21.7,22.2,21.3,22.6,20.8,22.6z"/>
		</g>
		<g>
			<path class="st3" d="M39.2,22.6c-0.5,0-0.8-0.4-0.8-0.8v-5c0-0.5,0.4-0.8,0.8-0.8c0.5,0,0.8,0.4,0.8,0.8v5
				C40,22.2,39.6,22.6,39.2,22.6z"/>
		</g>
		<g>
			<path class="st3" d="M23.3,49.2c-2.8,0-5-2.2-5-5c0-0.5,0.4-0.8,0.8-0.8c0.5,0,0.8,0.4,0.8,0.8c0,1.8,1.5,3.3,3.3,3.3
				s3.3-1.5,3.3-3.3s-1.5-3.3-3.3-3.3h-2.1c-0.5,0-0.8-0.4-0.8-0.8s0.4-0.8,0.8-0.8h2.1c1.8,0,3.3-1.5,3.3-3.3s-1.5-3.3-3.3-3.3
				S20,34.1,20,35.9c0,0.5-0.4,0.8-0.8,0.8c-0.5,0-0.8-0.4-0.8-0.8c0-2.8,2.2-5,5-5s5,2.2,5,5c0,1.7-0.9,3.3-2.2,4.2
				c1.3,0.9,2.2,2.4,2.2,4.2C28.3,47,26.1,49.2,23.3,49.2z"/>
		</g>
		<g>
			<path class="st3" d="M35.8,49.2c-0.5,0-0.8-0.4-0.8-0.8V34.5l-1.8,2.7c-0.3,0.4-0.8,0.5-1.2,0.2c-0.4-0.3-0.5-0.8-0.2-1.2l3.3-5
				c0.2-0.3,0.6-0.4,0.9-0.3c0.4,0.1,0.6,0.4,0.6,0.8v16.7C36.7,48.9,36.3,49.2,35.8,49.2z"/>
		</g>
	</g>
</g>
<path class="st3" d="M42.8,17.7c-0.5,0-0.8,0.4-0.8,0.8c0,0.4,0.4,0.8,0.8,0.8c3.1,0,5.6,2.5,5.6,5.6v23.7c0,3.1-2.5,5.6-5.6,5.6
	h-8.5h-8.5h-8.5c-3.1,0-5.6-2.5-5.6-5.6V24.9c0-3.1,2.5-5.6,5.6-5.6c0.4,0,0.8-0.4,0.8-0.8c0-0.4-0.3-0.8-0.8-0.8
	c-4,0-7.2,3.3-7.2,7.3v23.7c0,4,3.2,7.3,7.2,7.3h8.5h8.5h8.5c4,0,7.2-3.3,7.2-7.3V25C50,21,46.8,17.7,42.8,17.7z"/>
</svg>
