<?xml version="1.0" encoding="utf-8"?>
<!-- Generator: Adobe Illustrator 21.0.0, SVG Export Plug-In . SVG Version: 6.00 Build 0)  -->
<svg version="1.1" id="Ebene_1" xmlns="http://www.w3.org/2000/svg" xmlns:xlink="http://www.w3.org/1999/xlink" x="0px" y="0px"
	 viewBox="0 0 72 59.2" style="enable-background:new 0 0 72 59.2;" xml:space="preserve">
<style type="text/css">
	.st0{display:none;}
	.st1{display:inline;fill:#DBECFA;}
	.st2{display:inline;}
	.st3{fill:none;stroke:#010102;stroke-linecap:round;stroke-linejoin:round;stroke-miterlimit:10;}
	.st4{fill:#010102;}
	.st5{fill:none;stroke:#000001;stroke-linecap:round;stroke-linejoin:round;stroke-miterlimit:10;}
	.st6{fill:none;stroke:#000001;stroke-width:0.75;stroke-linecap:round;stroke-linejoin:round;stroke-miterlimit:10;}
</style>
<g id="Ebene_1_1_" class="st0">
	<rect y="-12.8" class="st1" width="72" height="72"/>
</g>
<g id="Ebene_3" class="st0">
	<g class="st2">
		<g>
			<line class="st3" x1="41" y1="22.6" x2="31" y2="48.1"/>
			<polyline class="st3" points="45.6,28 52.9,35.3 45.6,42.6 			"/>
			<polyline class="st3" points="26.3,42.6 19,35.3 26.3,28 			"/>
		</g>
		<g>
			<path class="st3" d="M59.1,58.6H12.9c-1.7,0-3-1.3-3-3v-48c0-1.7,1.3-3,3-3H59c1.7,0,3,1.3,3,3v48C62.1,57.2,60.7,58.6,59.1,58.6
				z"/>
			<line class="st3" x1="9.9" y1="12" x2="62.1" y2="12"/>
			<circle class="st4" cx="15.5" cy="8.3" r="0.9"/>
			<circle class="st4" cx="19.2" cy="8.3" r="0.9"/>
			<circle class="st4" cx="23" cy="8.3" r="0.9"/>
		</g>
	</g>
</g>
<g id="Ebene_4" class="st0">
	<g class="st2">
		<g id="XMLID_9_">
			<path id="XMLID_15_" class="st3" d="M34.2,58.6h-20c-3,0-5.4-2.4-5.4-5.4V11.4c0-3,2.4-5.4,5.4-5.4h19.9c3,0,5.4,2.4,5.4,5.4
				v41.7C39.6,56.1,37.2,58.6,34.2,58.6z"/>
			<line id="XMLID_14_" class="st3" x1="8.8" y1="13.2" x2="39.6" y2="13.2"/>
			<line id="XMLID_13_" class="st3" x1="9.7" y1="49.5" x2="38.7" y2="49.5"/>
			<line id="XMLID_12_" class="st3" x1="19.7" y1="9.6" x2="28.8" y2="9.6"/>
			<circle id="XMLID_11_" class="st3" cx="34.2" cy="9.6" r="0"/>
			<circle id="XMLID_10_" class="st3" cx="24.2" cy="54" r="0.9"/>
		</g>
		<g>
			<g id="XMLID_2_">
				<path id="XMLID_8_" class="st3" d="M37.8,0.6h19.9c3,0,5.4,2.4,5.4,5.4v41.7c0,3-2.4,5.4-5.4,5.4H45.1"/>
				<line id="XMLID_7_" class="st3" x1="45.1" y1="7.8" x2="63.2" y2="7.8"/>
				<line id="XMLID_6_" class="st3" x1="45.1" y1="44.1" x2="62.3" y2="44.1"/>
				<line id="XMLID_5_" class="st3" x1="43.2" y1="4.2" x2="52.3" y2="4.2"/>
				<circle id="XMLID_4_" class="st3" cx="57.8" cy="4.2" r="0"/>
				<circle id="XMLID_3_" class="st3" cx="47.8" cy="48.6" r="0.9"/>
			</g>
			<path id="XMLID_1_" class="st3" d="M37.8,0.6h19.9c3,0,5.4,2.4,5.4,5.4v41.7c0,3-2.4,5.4-5.4,5.4"/>
		</g>
	</g>
</g>
<g id="Ebene_5" class="st0">
	<g class="st2">
		<g>
			<polyline class="st3" points="7.3,15.5 0.5,15.5 0.5,57.4 7.8,57.4 			"/>
			<path class="st3" d="M18.7,15.5"/>
			<path class="st3" d="M18.7,57.4"/>
			<line class="st3" x1="16.9" y1="13.7" x2="16.9" y2="6.4"/>
			<line class="st3" x1="26" y1="30.1" x2="26" y2="22.8"/>
			<path class="st3" d="M9.6,13.7h7.3c1,0,1.8,0.8,1.8,1.8v6.9c0,0.3-0.1,0.6-0.2,0.8L17.1,26c-0.1,0.3-0.2,0.5-0.2,0.8V46
				c0,0.3,0.1,0.6,0.2,0.8l1.5,3c0.1,0.2,0.2,0.5,0.2,0.8v6.8c0,1-0.8,1.8-1.8,1.8H9.6c-1,0-1.8-0.8-1.8-1.8v-6.9
				c0-0.3,0.1-0.6,0.2-0.8l1.4-2.9c0.1-0.3,0.2-0.5,0.2-0.8V26.8c0-0.3-0.1-0.6-0.2-0.8L8,23.2c-0.1-0.3-0.2-0.5-0.2-0.8v-6.9
				C7.8,14.5,8.6,13.7,9.6,13.7z"/>
			<g>
				<line class="st3" x1="26" y1="35.5" x2="27.8" y2="35.5"/>
				<line class="st3" x1="35.1" y1="35.5" x2="36.9" y2="35.5"/>
			</g>
			<g>
				<line class="st3" x1="26" y1="41" x2="27.8" y2="41"/>
				<line class="st3" x1="35.1" y1="41" x2="36.9" y2="41"/>
			</g>
			<g>
				<line class="st3" x1="26" y1="46.4" x2="27.8" y2="46.4"/>
				<line class="st3" x1="35.1" y1="46.4" x2="36.9" y2="46.4"/>
				<line class="st3" x1="44.2" y1="46.4" x2="46" y2="46.4"/>
				<polyline class="st3" points="18.7,57.4 53.3,57.4 53.3,15.5 18.7,15.5 				"/>
				<polyline class="st3" points="26,22.8 46,22.8 46,30.1 26,30.1 				"/>
				<line class="st3" x1="44.2" y1="35.5" x2="46" y2="35.5"/>
				<line class="st3" x1="44.2" y1="41" x2="46" y2="41"/>
				<line class="st3" x1="44.2" y1="46.4" x2="46" y2="46.4"/>
			</g>
		</g>
		<g>
			<line class="st3" x1="25.5" y1="10" x2="22.3" y2="10"/>
			<path class="st3" d="M36.9,10"/>
			<line class="st3" x1="35.1" y1="8.2" x2="35.1" y2="0.9"/>
			<path class="st3" d="M26,10c0-1,0.8-1.8,1.8-1.8h7.3c1,0,1.8,0.8,1.8,1.8"/>
			<line class="st3" x1="62.4" y1="41" x2="64.2" y2="41"/>
			<polyline class="st3" points="58.8,51.9 71.5,51.9 71.5,10 36.9,10 			"/>
			<polyline class="st3" points="58.8,17.3 64.2,17.3 64.2,24.6 58.8,24.6 			"/>
			<line class="st3" x1="62.4" y1="30.1" x2="64.2" y2="30.1"/>
			<line class="st3" x1="62.4" y1="35.5" x2="64.2" y2="35.5"/>
			<line class="st3" x1="62.4" y1="41" x2="64.2" y2="41"/>
		</g>
	</g>
</g>
<g id="Ebene_6" class="st0">
	<g id="XMLID_16_" class="st2">
		<path id="XMLID_22_" class="st3" d="M46.2,58.6H25.8c-3.1,0-5.6-2.5-5.6-5.6V10.1c0-3.1,2.5-5.6,5.6-5.6h20.5
			c3.1,0,5.6,2.5,5.6,5.6V53C51.8,56.1,49.3,58.6,46.2,58.6z"/>
		<line id="XMLID_21_" class="st3" x1="20.2" y1="12" x2="51.8" y2="12"/>
		<line id="XMLID_20_" class="st3" x1="21.1" y1="49.3" x2="50.9" y2="49.3"/>
		<line id="XMLID_19_" class="st3" x1="31.3" y1="8.3" x2="40.7" y2="8.3"/>
		<circle id="XMLID_18_" class="st3" cx="46.2" cy="8.3" r="0"/>
		<circle id="XMLID_17_" class="st3" cx="36" cy="53.9" r="0.9"/>
	</g>
</g>
<g id="Ebene_7" class="st0">
	<g id="XMLID_23_" class="st2">
		<g id="XMLID_29_">
			<path id="XMLID_31_" class="st3" d="M46.2,58.8H25.8c-2.1,0-3.7-1.7-3.7-3.7V8.5c0-2.1,1.7-3.7,3.7-3.7h20.5
				c2.1,0,3.7,1.7,3.7,3.7V55C50,57.1,48.3,58.8,46.2,58.8z"/>
			<line id="XMLID_30_" class="st3" x1="22" y1="29" x2="50" y2="29"/>
		</g>
		<line id="XMLID_28_" class="st3" x1="31.3" y1="29" x2="31.3" y2="58.8"/>
		<line id="XMLID_27_" class="st3" x1="40.7" y1="29" x2="40.7" y2="58.8"/>
		<line id="XMLID_26_" class="st3" x1="22" y1="36.4" x2="50" y2="36.4"/>
		<line id="XMLID_25_" class="st3" x1="22" y1="43.9" x2="50" y2="43.9"/>
		<line id="XMLID_24_" class="st3" x1="22" y1="51.3" x2="49.5" y2="51.3"/>
	</g>
</g>
<g>
	<g>
		<path class="st5" d="M61.2,43H10.4c-3.8,0-7.1,3.5-7.1,7.8l0,0c0,4.3,3.1,7.8,7.1,7.8h50.8c3.8,0,7.1-3.5,7.1-7.8l0,0
			C68.2,46.5,65.1,43,61.2,43z"/>
		<path class="st5" d="M4.5,46.4L15.7,14c1.2-3.4,4.2-6.7,7.8-6.7h24.6c3.6,0,6.6,3.4,7.8,6.7l11.2,32.4"/>
		<circle class="st5" cx="10" cy="52.1" r="0"/>
		<circle class="st5" cx="16.8" cy="52.1" r="0"/>
		<circle class="st5" cx="60.4" cy="50.9" r="1.1"/>
	</g>
	<g id="XMLID_32_">
		<path id="XMLID_41_" class="st6" d="M42.5,38.1H29.1c-1.2,0-2.3-1-2.3-2.3V17.5l5.4-5.4h10.3c1.2,0,2.3,1,2.3,2.3v21.5
			C44.8,37,43.8,38.1,42.5,38.1z"/>
		<path id="XMLID_40_" class="st6" d="M40.3,21.1h-8.9c-0.5,0-0.8,0.4-0.8,0.8v11.7c0,0.5,0.4,0.8,0.8,0.8h8.9
			c0.5,0,0.8-0.4,0.8-0.8V21.9C41.2,21.4,40.8,21.1,40.3,21.1z"/>
		<line id="XMLID_39_" class="st6" x1="30.8" y1="27.3" x2="41.2" y2="27.3"/>
		<line id="XMLID_38_" class="st6" x1="33.1" y1="21.1" x2="33.1" y2="24.7"/>
		<line id="XMLID_37_" class="st6" x1="35.8" y1="27.3" x2="35.8" y2="24.7"/>
		<line id="XMLID_36_" class="st6" x1="38.5" y1="21.1" x2="38.5" y2="24.7"/>
		<line id="XMLID_35_" class="st6" x1="35.8" y1="34.3" x2="35.8" y2="30.9"/>
		<line id="XMLID_34_" class="st6" x1="33.1" y1="27.8" x2="33.1" y2="30.9"/>
		<line id="XMLID_33_" class="st6" x1="38.5" y1="27.3" x2="38.5" y2="30.9"/>
	</g>
</g>
</svg>
