<?xml version="1.0" encoding="utf-8"?>
<!-- Generator: Adobe Illustrator 21.0.0, SVG Export Plug-In . SVG Version: 6.00 Build 0)  -->
<svg version="1.1" xmlns="http://www.w3.org/2000/svg" xmlns:xlink="http://www.w3.org/1999/xlink" x="0px" y="0px"
	 viewBox="0 0 60 60" style="enable-background:new 0 0 60 60;" xml:space="preserve">
<style type="text/css">
	.st0{display:none;}
	.st1{display:inline;fill:#FFFFFF;}
	.st2{display:inline;}
	.st3{fill:#002049;}
	.st4{fill:none;stroke:#002049;stroke-miterlimit:10;}
	.st5{fill:none;stroke:#002049;stroke-linecap:round;stroke-linejoin:round;stroke-miterlimit:10;}
	.st6{fill:none;stroke:#002049;stroke-linecap:round;stroke-linejoin:round;}
	.st7{fill:none;stroke:#002049;stroke-linecap:round;stroke-linejoin:round;stroke-dasharray:1.5976,2.3964;}
</style>
<g id="Ebene_1">
	<g id="Ebene_1_1_" class="st0">
		<rect class="st1" width="60" height="60"/>
	</g>
	<g id="Ebene_1_Kopie" class="st0">
		<g class="st2">
			<g>
				<path class="st3" d="M29.5,27.5c-4.3,0-7.8-3.5-7.8-7.8s3.5-7.8,7.8-7.8s7.8,3.5,7.8,7.8S33.8,27.5,29.5,27.5z M29.5,13.7
					c-3.3,0-6,2.7-6,6s2.7,6,6,6s6-2.7,6-6S32.8,13.7,29.5,13.7z"/>
			</g>
			<g>
				<path class="st3" d="M30,52.7c-0.3,0-0.6-0.2-0.8-0.4c-0.6-1-14.8-24.8-14.8-32.6C14.4,11.6,21.4,5,30,5s15.6,6.6,15.6,14.7
					c0,7.8-14.2,31.5-14.8,32.6C30.6,52.5,30.3,52.7,30,52.7z M30,6.8c-7.6,0-13.8,5.8-13.8,12.8c0,6.3,10.7,25.1,13.8,30.3
					c3-5.2,13.8-24,13.8-30.3C43.8,12.6,37.6,6.8,30,6.8z"/>
			</g>
			<g>
				<path class="st3" d="M30,60c-9.6,0-19.2-2.2-19.2-6.4c0-3.6,7.2-5.6,13.9-6.2c0.5,0,0.9,0.3,1,0.8c0,0.5-0.3,0.9-0.8,1
					c-8.4,0.8-12.2,3-12.2,4.4c0,1.9,6.6,4.6,17.4,4.6s17.4-2.7,17.4-4.6c0-1.3-3.8-3.6-12.2-4.4c-0.5,0-0.9-0.5-0.8-1
					c0-0.5,0.5-0.9,1-0.8c6.7,0.6,13.9,2.5,13.9,6.2C49.2,57.8,39.6,60,30,60z"/>
			</g>
		</g>
	</g>
	<g id="Ebene_5" class="st0">
		<g class="st2">
			<g>
				<path class="st3" d="M34.2,13.3h-8.3c-0.5,0-0.8-0.4-0.8-0.8s0.4-0.8,0.8-0.8h8.3c0.5,0,0.8,0.4,0.8,0.8S34.6,13.3,34.2,13.3z"
					/>
			</g>
			<g>
				<path class="st3" d="M49.2,20H10.8c-0.5,0-0.8-0.4-0.8-0.8s0.4-0.8,0.8-0.8h38.3c0.5,0,0.8,0.4,0.8,0.8S49.6,20,49.2,20z"/>
			</g>
			<g>
				<path class="st3" d="M20.8,16.7c-0.5,0-0.8-0.4-0.8-0.8v-5c0-0.5,0.4-0.8,0.8-0.8c0.5,0,0.8,0.4,0.8,0.8v5
					C21.7,16.3,21.3,16.7,20.8,16.7z"/>
			</g>
			<g>
				<path class="st3" d="M39.2,16.7c-0.5,0-0.8-0.4-0.8-0.8v-5c0-0.5,0.4-0.8,0.8-0.8c0.5,0,0.8,0.4,0.8,0.8v5
					C40,16.3,39.6,16.7,39.2,16.7z"/>
			</g>
			<g>
				<path class="st3" d="M49.2,34.9c-0.5,0-0.8-0.4-0.8-0.8V19c0-3.1-2.5-5.6-5.6-5.6c-0.5,0-0.8-0.4-0.8-0.8s0.4-0.8,0.8-0.8
					c4,0,7.2,3.3,7.2,7.3v15.1C50,34.5,49.6,34.9,49.2,34.9z"/>
			</g>
			<g>
				<path class="st3" d="M34.3,50h-17c-4,0-7.2-3.3-7.2-7.3V19c0-4,3.2-7.3,7.2-7.3c0.5,0,0.8,0.4,0.8,0.8s-0.4,0.8-0.8,0.8
					c-3.1,0-5.6,2.5-5.6,5.6v23.7c0,3.1,2.5,5.6,5.6,5.6h17c0.5,0,0.8,0.4,0.8,0.8S34.7,50,34.3,50z"/>
			</g>
			<g>
				<path class="st3" d="M23.3,43.3c-2.8,0-5-2.2-5-5c0-0.5,0.4-0.8,0.8-0.8c0.5,0,0.8,0.4,0.8,0.8c0,1.8,1.5,3.3,3.3,3.3
					s3.3-1.5,3.3-3.3S25,35,23.2,35h-2.1c-0.5,0-0.8-0.4-0.8-0.8s0.4-0.8,0.8-0.8h2.1c1.8,0,3.3-1.5,3.3-3.3s-1.5-3.3-3.3-3.3
					S20,28.2,20,30c0,0.5-0.4,0.8-0.8,0.8c-0.5,0-0.8-0.4-0.8-0.8c0-2.8,2.2-5,5-5s5,2.2,5,5c0,1.7-0.9,3.3-2.2,4.2
					c1.3,0.9,2.2,2.4,2.2,4.2C28.3,41.1,26.1,43.3,23.3,43.3z"/>
			</g>
			<g>
				<path class="st3" d="M35.8,43.3c-0.5,0-0.8-0.4-0.8-0.8V28.6l-1.8,2.7c-0.3,0.4-0.8,0.5-1.2,0.2c-0.4-0.3-0.5-0.8-0.2-1.2l3.3-5
					c0.2-0.3,0.6-0.4,0.9-0.3c0.4,0.1,0.6,0.4,0.6,0.8v16.7C36.7,43,36.3,43.3,35.8,43.3z"/>
			</g>
			<g>
				<path class="st3" d="M49.2,60c-6,0-10.8-4.9-10.8-10.8s4.9-10.8,10.8-10.8S60,43.2,60,49.2S55.1,60,49.2,60z M49.2,40
					c-5.1,0-9.2,4.1-9.2,9.2s4.1,9.2,9.2,9.2s9.2-4.1,9.2-9.2S54.2,40,49.2,40z"/>
			</g>
			<g>
				<path class="st3" d="M59.2,40c-0.2,0-0.4-0.1-0.6-0.2l-3.3-3.3c-0.3-0.3-0.3-0.9,0-1.2s0.9-0.3,1.2,0l3.3,3.3
					c0.3,0.3,0.3,0.9,0,1.2C59.6,39.9,59.4,40,59.2,40z"/>
			</g>
			<g>
				<path class="st3" d="M39.2,40c-0.2,0-0.4-0.1-0.6-0.2c-0.3-0.3-0.3-0.9,0-1.2l3.3-3.3c0.3-0.3,0.9-0.3,1.2,0s0.3,0.9,0,1.2
					l-3.3,3.3C39.6,39.9,39.4,40,39.2,40z"/>
			</g>
			<g>
				<path class="st3" d="M52.5,53.3c-0.2,0-0.4-0.1-0.6-0.2l-3.3-3.3c-0.2-0.2-0.2-0.4-0.2-0.6v-6.7c0-0.5,0.4-0.8,0.8-0.8
					c0.5,0,0.8,0.4,0.8,0.8v6.3l3.1,3.1c0.3,0.3,0.3,0.9,0,1.2C52.9,53.3,52.7,53.3,52.5,53.3z"/>
			</g>
		</g>
	</g>
	<g>
		<path class="st4" d="M26,19.6c0-1.9,1.5-3.1,3.1-3.1c1.6,0,3.1,1.2,3.1,3.1c0,1.9-0.1,3.8-1.6,4.7c-1.7,1.1-1.5,2.9-1.5,2.9"/>
		<path class="st4" d="M44.1,38.6l-5-1.7c-2.6,2.8-5.9,4.5-9.5,4.5s-6.9-1.6-9.5-4.5l-5,1.7c-4.7,1.6-7.8,7.1-7.8,12v1.4l45,0.1
			v-1.4C52.4,45.8,48.8,40.3,44.1,38.6z"/>
		<path class="st4" d="M41.1,20.6C41.1,20.6,41,20.6,41.1,20.6c0-0.3,0-0.6,0-1c0-5.9-5.4-10.9-11.2-10.9c-5.9,0-11.2,5-11.2,10.9
			c0,0.3,0,0.7,0.1,1c0,0-0.1,0-0.1,0c-1.1,0-1.9,1.7-1.9,3.9s0.9,3.9,1.9,3.9c0.2,0,0.4-0.1,0.6-0.2c1.4,5.7,5.8,10.1,10.5,10.1
			c4.7,0,9.4-4.3,10.9-10.1c0.2,0.1,0.4,0.2,0.6,0.2c1.1,0,1.9-1.7,1.9-3.9S42.2,20.6,41.1,20.6z"/>
		<circle class="st4" cx="29.1" cy="30.5" r="0.8"/>
	</g>
</g>
<g id="Ebene_2" class="st0">
	<g class="st2">
		<polygon class="st5" points="51.2,11 15.9,31.6 26.9,35.3 30.6,46.3 32.1,36.8 45.3,41.9 		"/>
		<polyline class="st5" points="32.1,36.8 51.2,11 26.9,35.3 		"/>
		<line class="st5" x1="30.6" y1="46.3" x2="36.5" y2="39"/>
		<g>
			<g>
				<path class="st6" d="M8.5,42.6c0.4,0.4,0.9,0.9,1.3,1.3"/>
				<path class="st7" d="M13.3,46.7c3.7,2.5,7.6,3.9,11.7,3"/>
				<path class="st6" d="M27.1,49c0.5-0.2,1.1-0.5,1.6-0.8"/>
			</g>
		</g>
	</g>
</g>
<g id="Ebene_3" class="st0">
	<g class="st2">
		<circle class="st5" cx="29.2" cy="30.5" r="3.1"/>
		<path class="st5" d="M33.8,13.4c-0.3,0.1-0.5,0.2-0.8,0.2c-1.3,0-2.3-1-2.3-2.3c0-0.6,0.2-1.1,0.6-1.5C30.6,9.3,29.9,9,29.2,9
			c-4.2,0-7.7,9.6-7.7,21.5S24.9,52,29.2,52s7.7-9.6,7.7-21.5C36.8,23.5,35.7,17.4,33.8,13.4z"/>
		<circle class="st5" cx="33" cy="11.3" r="2.3"/>
		<path class="st5" d="M41.6,43.1c0-0.3,0.1-0.5,0.3-0.8c0.6-1.1,2-1.5,3.1-0.8c0.5,0.3,0.8,0.7,1,1.2c0.8-0.3,1.4-0.8,1.8-1.4
			c2.1-3.7-4.5-11.5-14.8-17.4s-20.3-7.8-22.5-4.1C8.4,23.4,15,31.2,25.3,37.1C31.4,40.6,37.3,42.7,41.6,43.1z"/>
		<ellipse transform="matrix(0.5 -0.866 0.866 0.5 -15.6613 59.7018)" class="st5" cx="43.9" cy="43.4" rx="2.3" ry="2.3"/>
		<path class="st5" d="M18.1,42.3c0-0.3-0.1-0.5-0.3-0.8c-0.6-1.1-2-1.5-3.1-0.8c-0.5,0.3-0.8,0.7-1,1.2c-0.8-0.3-1.4-0.8-1.8-1.4
			C9.8,36.8,16.4,29,26.7,23s20.3-7.8,22.5-4.1c2.1,3.7-4.5,11.5-14.8,17.4C28.4,39.8,22.4,41.9,18.1,42.3z"/>
		<ellipse transform="matrix(0.866 -0.5 0.5 0.866 -19.1881 13.6284)" class="st5" cx="15.8" cy="42.6" rx="2.3" ry="2.3"/>
	</g>
</g>
</svg>
