<?xml version="1.0" encoding="UTF-8" standalone="no"?>
<!DOCTYPE svg PUBLIC "-//W3C//DTD SVG 1.1//EN" "http://www.w3.org/Graphics/SVG/1.1/DTD/svg11.dtd">
<svg width="100%" height="100%" viewBox="0 0 120 120" version="1.1" xmlns="http://www.w3.org/2000/svg" xmlns:xlink="http://www.w3.org/1999/xlink" xml:space="preserve" style="fill-rule:evenodd;clip-rule:evenodd;stroke-linejoin:round;stroke-miterlimit:1.41421;">
    <g id="_x38_HEENG_2_" transform="matrix(0.6,0,0,0.6,2.4869e-14,0.03)">
        <path d="M0,140C0,113.3 0,86.7 0,60C0.3,57.7 0.8,55.4 0.9,53.2C2.4,27.3 18.8,7.8 43.8,2.4C49.2,1.3 54.6,0.8 60,0C86.7,0 113.3,0 140,0C142.3,0.3 144.5,0.8 146.8,0.9C172.3,2.4 191.3,18.1 197.2,42.9C198.6,48.8 199.1,54.9 200,60.9C200,86.6 200,112.2 200,137.9C199.7,140.8 199.2,143.8 199,146.7C197.5,172.1 181.8,191.2 157.1,197.1C150.9,198.6 144.4,199 138,199.9C112.3,199.9 86.7,199.9 61,199.9C58.4,199.6 55.8,199.1 53.2,198.9C27.3,197.4 7.5,180.7 2.3,155.6C1.2,150.5 0.8,145.2 0,140ZM99.4,181.1C114.2,181.1 129.1,181.4 143.9,180.9C154.9,180.6 164.8,177.1 172.3,168.3C178.4,161.1 181,152.5 181,143.3C181.3,114.7 181.6,86 181,57.4C180.5,33.4 166.8,19.7 142.8,18.9C118.3,18.2 93.8,18.1 69.3,18.2C61.8,18.2 54.2,18.8 47,20.3C30.1,23.8 19.4,37 19.1,55.8C18.5,84.9 18.5,114.1 19.1,143.2C19.6,166.5 33.7,180.1 57,180.9C71.1,181.5 85.3,181.1 99.4,181.1Z" style="fill:rgb(204,204,204);fill-rule:nonzero;"/>
        <path d="M48.7,99.7C48.9,71 71.7,48.4 100.3,48.7C128.9,48.9 151.5,71.9 151.2,100.5C150.9,129 128.2,151.4 99.8,151.3C71.2,151.2 48.5,128.3 48.7,99.7ZM99.8,133.1C118.4,133.2 133.1,118.6 133.1,100C133.1,81.6 118.6,66.9 100.4,66.8C81.7,66.7 66.9,81.1 66.8,99.6C66.7,118.3 81.3,133.1 99.8,133.1Z" style="fill:rgb(204,204,204);fill-rule:nonzero;"/>
        <path d="M165.3,46.4C165.4,53.1 160.1,58.6 153.5,58.7C147,58.8 141.3,53.3 141.2,46.8C141.1,40.3 146.5,34.8 153.1,34.7C160,34.6 165.2,39.6 165.3,46.4Z" style="fill:rgb(204,204,204);fill-rule:nonzero;"/>
    </g>
</svg>
