<?xml version="1.0" encoding="utf-8"?>
<!-- Generator: Adobe Illustrator 21.0.0, SVG Export Plug-In . SVG Version: 6.00 Build 0)  -->
<svg version="1.1" xmlns="http://www.w3.org/2000/svg" xmlns:xlink="http://www.w3.org/1999/xlink" x="0px" y="0px"
	 viewBox="0 0 52 52" style="enable-background:new 0 0 52 52;" xml:space="preserve">
<style type="text/css">
	.st0{fill:none;stroke:#020203;stroke-linecap:round;stroke-linejoin:round;stroke-miterlimit:10;}
	.st1{display:none;}
	.st2{display:inline;}
</style>
<g id="Ebene_2">
</g>
<g id="Ebene_1">
	<g>
		<path class="st0" d="M43,46.4H9.3c-1.1,0-2-0.9-2-2V3.8c0-1.1,0.9-2,2-2H43c1.1,0,2,0.9,2,2v40.6C45,45.5,44.1,46.4,43,46.4z"/>
		<path class="st0" d="M7.3,17.2L7.3,17.2c-2.8,0-5.1,1.9-5.1,4.3v2.1c0,1.2,1.2,2.1,2.6,2.1h2.6"/>
		<path class="st0" d="M45,17.2L45,17.2c2.8,0,5.1,1.9,5.1,4.3v2.1c0,1.2-1.2,2.1-2.6,2.1H45"/>
		<circle class="st0" cx="14.1" cy="37.8" r="1.7"/>
		<circle class="st0" cx="38.1" cy="37.8" r="1.7"/>
		<path class="st0" d="M10.7,46.3v2.6c0,1.4,1,2.6,2.1,2.6h4.3c1.2,0,2.1-1.2,2.1-2.6v-2.6"/>
		<path class="st0" d="M33,46.3v2.6c0,1.4,1,2.6,2.1,2.6h4.3c1.2,0,2.1-1.2,2.1-2.6v-2.6"/>
		<path class="st0" d="M38.1,8.6h-24c-0.9,0-1.7-0.8-1.7-1.7l0,0c0-0.9,0.8-1.7,1.7-1.7h24c0.9,0,1.7,0.8,1.7,1.7l0,0
			C39.8,7.9,39.1,8.6,38.1,8.6z"/>
		<path class="st0" d="M40.6,29.2H11.7c-0.6,0-1-0.4-1-1V14.8c0-0.6,0.4-1,1-1h28.9c0.6,0,1,0.4,1,1v13.4
			C41.6,28.8,41.1,29.2,40.6,29.2z"/>
	</g>
</g>
<g id="Ebene_3" class="st1">
	<g class="st2">
		<path class="st0" d="M33.7,12.4H18.6c-1.1,0-2,0.9-2,2.1l-0.6,11.1c0,1.2,4.6,2.2,10.2,2.2c5.6,0,10.2-1,10.2-2.2l-0.6-11.1
			C35.6,13.3,34.7,12.4,33.7,12.4z"/>
		<line class="st0" x1="22.7" y1="36.2" x2="29.5" y2="36.2"/>
		<path class="st0" d="M15.9,3.9c0,0,2.1-1.7,10.2-1.7c8.1,0,10.2,1.7,10.2,1.7"/>
		<polyline class="st0" points="23,2.4 26.1,8.6 29.3,2.4 		"/>
		<path class="st0" d="M39.6,12.9C39.5,10.7,37.7,9,35.6,9H16.7c-2.1,0-3.9,1.7-4.1,3.9l-1.8,27.6c0,1.7,6.8,4.2,15.3,4.2
			c8.5,0,15.3-2.5,15.3-4.2L39.6,12.9z"/>
		<line class="st0" x1="9.1" y1="51.5" x2="15.1" y2="43.8"/>
		<line class="st0" x1="43.1" y1="51.5" x2="37.2" y2="43.8"/>
		<line class="st0" x1="13.2" y1="46.4" x2="38.9" y2="46.4"/>
		<line class="st0" x1="10.8" y1="49.8" x2="41.4" y2="49.8"/>
		<circle class="st0" cx="16.8" cy="35.3" r="2.5"/>
		<circle class="st0" cx="35.5" cy="35.3" r="2.5"/>
	</g>
</g>
<g id="Ebene_4" class="st1">
	<g class="st2">
		<line class="st0" x1="9.1" y1="51.5" x2="17.6" y2="41.3"/>
		<line class="st0" x1="43.1" y1="51.5" x2="34.6" y2="41.3"/>
		<path class="st0" d="M38.8,41.3H13.4c-2.5,0-4.4-2.1-4.3-4.6l1.6-28.4c0.2-3.5,3-6.2,6.5-6.2h17.9c3.4,0,6.3,2.7,6.5,6.2l1.6,28.4
			C43.3,39.2,41.3,41.3,38.8,41.3z"/>
		<circle class="st0" cx="26.1" cy="7.3" r="1.7"/>
		<polygon class="st0" points="24.4,10.7 14.2,12.4 14.2,19.2 24.4,17.5 		"/>
		<polygon class="st0" points="27.8,10.7 38,12.4 38,19.2 27.8,17.5 		"/>
		<path class="st0" d="M10.8,20.9c6.8,0,15.3,11.9,15.3,11.9"/>
		<path class="st0" d="M41.4,20.9c-6.8,0-15.3,11.9-15.3,11.9"/>
		<circle class="st0" cx="15.9" cy="34.5" r="1.7"/>
		<circle class="st0" cx="36.3" cy="34.5" r="1.7"/>
		<line class="st0" x1="15.1" y1="44.7" x2="37.2" y2="44.7"/>
		<line class="st0" x1="10.8" y1="49.8" x2="41.4" y2="49.8"/>
	</g>
</g>
<g id="Ebene_5" class="st1">
	<g class="st2">
		<path class="st0" d="M3.9,35.6h3.3c1.1,0,2.1,0.4,2.8,1.2l5.7,5.2H4"/>
		<path class="st0" d="M48.3,35.6H45c-1.1,0-2.1,0.4-2.8,1.2L36.4,42h11.8"/>
		<path class="st0" d="M34.8,46.7l4-1.6h9.5c0,0,0.8-3.4,0.8-7.6c0-4.2-1.2-6.5-4-7.9c-2.8-1.4-9.4-2-19-2c-9.6,0-16.3,0.6-19,2
			c-2.7,1.4-4,3.7-4,7.9c0,4.2,0.8,7.6,0.8,7.6h9.5l4,1.6H34.8z"/>
		<polygon class="st0" points="31.7,42 38,35.6 14.2,35.6 20.6,42 		"/>
		<path class="st0" d="M45.1,29.2c0,0-4.8-11.1-6-12.2c-1.3-1.1-5.3-2-12-2h-2c-6.7,0-10.8,1-12,2c-1.2,1.1-6,12.2-6,12.2"/>
		<path class="st0" d="M47.5,45.1v4.3c0,1.1-0.9,2-2,2H40c-1.1,0-2-0.9-2-2v-3.5"/>
		<path class="st0" d="M14.2,45.9v3.5c0,1.1-0.9,2-2,2H6.7c-1.1,0-2-0.9-2-2v-3.5"/>
	</g>
</g>
</svg>
