<?xml version="1.0" encoding="utf-8"?>
<!-- Generator: Adobe Illustrator 20.1.0, SVG Export Plug-In . SVG Version: 6.00 Build 0)  -->
<svg version="1.1" xmlns="http://www.w3.org/2000/svg" xmlns:xlink="http://www.w3.org/1999/xlink" x="0px" y="0px"
	 viewBox="0 0 120 120" style="enable-background:new 0 0 120 120;" xml:space="preserve">
<style type="text/css">
	.st0{display:none;}
	.st1{display:inline;fill:#CCCCCC;}
	.st2{display:inline;}
	.st3{fill:#CCCCCC;}
</style>
<g id="Layer_1" class="st0">
	<path class="st1" d="M119.9,40.1c-0.5,11.7-8.7,27.7-24.5,48.1C79.2,109.4,65.3,120,54.1,120c-7,0-12.9-6.5-17.7-19.4
		c-3.2-11.9-6.5-23.7-9.7-35.6C23,52.1,19.2,45.6,15.1,45.6c-0.9,0-4,1.9-9.4,5.7L0,44c5.9-5.2,11.8-10.4,17.5-15.6
		c7.9-6.8,13.8-10.4,17.8-10.8c9.3-0.9,15.1,5.5,17.2,19.2c2.3,14.8,3.9,24,4.9,27.6c2.7,12.3,5.7,18.4,8.9,18.4
		c2.5,0,6.3-4,11.3-11.9c5-8,7.7-14,8.1-18.2c0.7-6.9-2-10.3-8.1-10.3c-2.9,0-5.8,0.7-8.9,2c5.9-19.4,17.2-28.8,33.8-28.2
		C114.8,16.4,120.7,24.4,119.9,40.1z"/>
</g>
<g id="Ebene_2" class="st0">
	<g class="st2">
		<path class="st3" d="M119,35.9l-38-19c-0.2-0.1-0.4-0.1-0.5-0.1c0,0,0,0,0,0c-0.5,0-0.9,0.2-1.2,0.6L55.8,55.4L82,97.9l37.4-60.8
			C119.7,36.7,119.5,36.1,119,35.9z"/>
		<polygon class="st3" points="43.4,42.1 43.4,83.1 79.9,101.3 		"/>
		<path class="st3" d="M83.1,102.9l33.5,16.7c1.8,0.9,3.3,0,3.3-2.1V43.1L83.1,102.9z"/>
		<path class="st3" d="M39.4,36.1L4.3,18.5l-2.2-1.1c-0.3-0.2-0.6-0.2-0.9-0.2c-0.4,0-0.7,0.2-1,0.4c-0.2,0.3-0.4,0.7-0.4,1.2v80
			c0,1.4,1,3,2.2,3.6l34.5,17.2c0.5,0.2,0.9,0.4,1.3,0.4c1.2,0,2-0.9,2-2.4V36.9C39.9,36.5,39.7,36.2,39.4,36.1z"/>
	</g>
</g>
<g id="Ebene_3">
	<path class="st3" d="M37.7,120c45.3,0,70-37.5,70-70c0-1.1,0-2.1-0.1-3.2c4.8-3.5,9-7.8,12.3-12.7c-4.4,2-9.2,3.3-14.1,3.9
		c5.1-3,9-7.9,10.8-13.6c-4.8,2.8-10,4.9-15.6,6c-4.5-4.8-10.9-7.8-18-7.8c-13.6,0-24.6,11-24.6,24.6c0,1.9,0.2,3.8,0.6,5.6
		C38.6,51.7,20.5,41.9,8.4,27C6.2,30.6,5,34.8,5,39.4c0,8.5,4.3,16.1,11,20.5c-4-0.1-7.8-1.2-11.2-3.1c0,0.1,0,0.2,0,0.3
		C4.8,69,13.3,79,24.6,81.2c-2.1,0.6-4.2,0.9-6.5,0.9c-1.6,0-3.1-0.2-4.6-0.4c3.1,9.8,12.2,16.9,23,17.1c-8.4,6.6-19,10.5-30.6,10.5
		c-2,0-3.9-0.1-5.9-0.3C10.9,115.9,23.8,120,37.7,120"/>
</g>
<g id="Ebene_4" class="st0">
	<path id="White_2_" class="st1" d="M113.4,0H6.6C3,0,0,3,0,6.6v106.8c0,3.7,3,6.6,6.6,6.6h57.5V73.5H48.5V55.4h15.6V42.1
		c0-15.5,9.5-23.9,23.3-23.9c6.6,0,12.3,0.5,14,0.7V35l-9.6,0c-7.5,0-9,3.6-9,8.8v11.6h17.9l-2.3,18.1H82.8V120h30.6
		c3.7,0,6.6-3,6.6-6.6V6.6C120,3,117,0,113.4,0z"/>
</g>
</svg>
