<?xml version="1.0" encoding="UTF-8"?>
<!DOCTYPE svg PUBLIC "-//W3C//DTD SVG 1.1//EN" "http://www.w3.org/Graphics/SVG/1.1/DTD/svg11.dtd">
<svg version="1.1" xmlns="http://www.w3.org/2000/svg" xmlns:xlink="http://www.w3.org/1999/xlink" x="0" y="0" width="219.111" height="181.167" viewBox="0, 0, 219.111, 181.167">
  <g id="Layer_1">
    <path d="M25.58,42.203 C25.683,42.231 25.787,42.259 25.89,42.287 C25.951,42.055 26.012,41.822 26.073,41.59 C25.997,41.567 25.921,41.543 25.845,41.52 C25.757,41.747 25.668,41.975 25.58,42.203 M53.998,137.342 C53.75,136.998 53.503,136.654 53.255,136.309 C53.181,136.36 53.107,136.411 53.033,136.461 C53.055,136.945 53.561,137.122 53.721,137.517 C53.812,137.459 53.906,137.401 53.998,137.342 M55.16,142.515 C53.986,143.132 52.702,143.554 51.309,143.371 C49.503,143.135 48.102,142.215 46.994,140.827 C45.604,139.083 44.364,137.248 43.844,135.024 C43.79,134.794 43.65,134.585 43.583,134.356 C43.386,133.668 43.191,132.979 43.031,132.282 C43.007,132.183 43.181,132.038 43.228,131.968 C42.98,131.596 42.638,131.289 42.566,130.928 C42.408,130.132 42.389,129.308 42.308,128.496 C42.222,127.649 42.121,126.803 42.038,125.955 C41.937,124.938 41.815,123.921 41.761,122.901 C41.68,121.366 41.681,119.827 41.59,118.293 C41.458,116.037 41.292,113.783 41.107,111.532 C40.983,110.032 40.829,108.534 40.632,107.042 C40.484,105.923 40.264,104.813 40.047,103.704 C39.625,101.562 39.373,99.408 38.632,97.304 C37.772,94.861 36.243,92.952 34.684,91.01 C34.618,90.93 34.546,90.854 34.464,90.792 C32.438,89.242 30.346,87.824 27.772,87.329 C27.453,87.268 27.151,87.114 26.834,87 C26.881,86.802 26.885,86.697 26.929,86.612 C27.395,85.71 27.946,84.843 28.322,83.905 C29.319,81.421 30.237,78.911 29.957,76.144 C29.787,74.458 29.478,72.803 28.677,71.309 C27.953,69.957 27.147,68.633 26.237,67.4 C25.124,65.891 23.936,64.469 22.27,63.44 C19.887,61.969 18.076,59.923 17.194,57.183 C16.591,55.314 16.382,53.435 17.106,51.545 C17.495,50.533 18.028,49.638 19.013,49.075 C19.323,48.898 19.582,48.63 19.991,48.303 C19.58,48.078 19.322,47.941 19.068,47.796 C18.803,47.645 18.521,47.513 18.284,47.325 C16.726,46.088 15.542,44.561 14.716,42.747 C13.982,41.133 13.659,39.494 14.273,37.766 C14.376,37.476 14.457,37.174 14.596,36.902 C15.22,35.684 15.9,34.492 16.488,33.258 C17.17,31.827 18.456,30.907 19.381,29.685 C19.497,29.531 19.71,29.446 19.886,29.342 C21.27,28.524 22.725,27.805 24.024,26.869 C25.96,25.474 28.173,24.804 30.399,24.154 C33.457,23.261 36.541,22.453 39.712,22.059 C40.862,21.916 42.024,21.795 43.183,21.774 C45.338,21.736 47.494,21.774 49.652,21.788 C51.673,21.802 53.695,21.788 55.715,21.856 C58.007,21.933 60.298,22.078 62.588,22.212 C64.091,22.301 65.599,22.375 67.092,22.548 C68.073,22.662 69.019,23.039 70.035,22.876 C70.226,22.845 70.436,22.938 70.638,22.971 C71.212,23.065 71.784,23.172 72.361,23.249 C74.464,23.527 76.578,23.731 78.668,24.083 C81.803,24.612 84.912,25.271 88.08,25.625 C90.895,25.939 93.687,25.899 96.483,25.574 C98.564,25.332 100.286,24.503 101.336,22.561 C101.865,21.581 102.281,20.586 102.286,19.452 C102.292,18.431 101.907,17.69 100.923,17.255 C99.907,16.806 98.86,16.546 97.759,16.426 C96.979,16.34 96.264,16.4 95.612,16.889 C95.257,17.156 94.864,17.372 94.483,17.605 C93.812,18.017 93.389,18.64 93.072,19.331 C92.63,20.296 92.999,21.058 94.143,21.503 C94.143,21.252 94.134,21.03 94.145,20.809 C94.154,20.579 94.101,20.297 94.213,20.129 C94.697,19.404 95.419,19.02 96.277,18.954 C96.741,18.918 97.119,19.139 97.406,19.546 C97.951,20.321 97.96,21.494 97.389,22.35 C96.494,23.688 94.307,23.907 92.92,22.851 C91.508,21.777 90.658,19.174 92.092,17.1 C92.69,16.235 93.423,15.543 94.352,15.05 C95.656,14.359 96.983,14.052 98.501,14.294 C99.562,14.464 100.4,15.041 101.357,15.384 C102.326,15.731 103.007,16.443 103.542,17.317 C104.116,18.258 104.271,19.284 104.156,20.345 C104.093,20.918 103.958,21.508 103.725,22.033 C103.243,23.123 102.884,24.378 102.096,25.199 C100.371,26.993 98.335,28.402 95.667,28.438 C95.326,28.443 94.982,28.496 94.645,28.554 C91.824,29.036 88.988,29.086 86.147,28.783 C84.547,28.613 82.955,28.35 81.356,28.17 C78.397,27.838 75.437,27.527 72.475,27.229 C71.937,27.175 71.376,27.299 70.849,27.207 C69.84,27.031 68.85,26.757 67.851,26.528 C67.55,26.459 67.251,26.378 66.947,26.348 C66.101,26.265 65.253,26.192 64.405,26.14 C62.868,26.046 61.33,25.973 59.792,25.885 C58.458,25.808 57.097,25.865 55.798,25.611 C53.522,25.165 51.234,25.164 48.944,25.155 C47.618,25.149 46.288,25.337 44.962,25.472 C42.816,25.689 40.655,25.836 38.531,26.195 C36.341,26.565 34.178,27.107 32.026,27.66 C30.505,28.051 28.973,28.474 27.53,29.081 C25.579,29.902 23.616,30.716 21.806,31.85 C19.246,33.456 17.181,35.485 15.98,38.306 C15.635,39.115 15.472,39.953 15.712,40.814 C15.895,41.469 16.154,42.104 16.376,42.749 C16.676,43.624 17.333,44.132 18.131,44.526 C18.833,44.873 19.497,45.295 20.201,45.639 C20.49,45.78 20.855,45.911 21.155,45.86 C22.258,45.673 23.22,45.186 23.959,44.334 C23.926,44.262 23.919,44.213 23.897,44.204 C23.615,44.093 23.331,43.986 23.047,43.883 C21.555,43.346 20.994,41.71 21.723,40.305 C22.269,39.253 23.2,38.828 24.209,38.467 C25.113,38.145 25.877,38.407 26.547,39.06 C27.5,39.988 27.653,41.131 27.496,42.378 C27.289,44.028 26.345,45.197 25.086,46.176 C24.422,46.692 23.768,47.221 23.062,47.781 C23.223,47.865 23.307,47.946 23.388,47.944 C24.46,47.916 25.308,48.474 26.078,49.088 C26.761,49.633 27.198,50.447 27.121,51.336 C26.952,53.269 26.095,54.401 24.317,54.981 C22.905,55.443 21.838,54.319 21.771,53.092 C21.731,52.356 22.208,51.936 22.942,52.039 C23.72,52.147 24.166,52.585 24.165,53.426 C24.331,53.362 24.456,53.353 24.512,53.286 C25.044,52.65 25.343,51.954 25.036,51.108 C24.714,50.222 24.229,49.537 23.203,49.377 C22.177,49.217 21.315,49.47 20.565,50.193 C19.582,51.141 19.407,52.408 19.141,53.644 C18.999,54.305 19.103,54.904 19.462,55.497 C20.627,57.423 22.112,59.079 23.794,60.545 C26.176,62.619 28.426,64.82 30.52,67.181 C30.813,67.512 31.107,67.872 31.284,68.27 C31.993,69.863 32.65,71.479 33.337,73.081 C33.896,74.388 33.914,75.754 33.767,77.127 C33.618,78.518 33.635,79.941 33.007,81.249 C32.315,82.692 31.644,84.146 30.966,85.59 C31.349,86.11 31.888,86.124 32.378,86.216 C34.652,86.641 36.59,87.601 37.947,89.564 C38.255,90.01 38.662,90.396 39.056,90.776 C40.664,92.324 41.664,94.186 42.061,96.386 C42.2,97.161 42.368,97.94 42.625,98.682 C43.429,101.004 43.692,103.437 43.929,105.842 C44.212,108.734 44.186,111.658 44.239,114.569 C44.278,116.688 44.159,118.811 44.239,120.928 C44.312,122.879 44.59,124.821 44.716,126.771 C44.896,129.524 45.464,132.185 46.275,134.82 C47.02,137.244 48.133,139.386 50.188,140.94 C50.676,141.309 51.208,141.631 51.754,141.905 C52.257,142.157 52.768,142.029 53.194,141.673 C54.13,140.894 54.451,139.412 53.962,138.199 C53.595,138.646 53.339,139.196 52.91,139.435 C51.614,140.159 50.361,139.535 49.993,138.093 C49.792,137.308 49.869,136.602 50.525,136.046 C50.862,135.759 51.188,135.449 51.561,135.212 C52.6,134.55 53.694,134.511 54.782,135.08 C56.444,135.95 57.181,137.941 56.936,139.519 C56.748,140.731 56.294,141.919 55.16,142.515 M110.557,19.677 C109.471,18.836 108.076,18.955 107.319,19.953 C106.601,20.899 106.697,22.503 107.507,23.115 C108.215,23.648 110.146,23.252 110.725,22.455 C111.402,21.522 111.326,20.273 110.557,19.677 M101.256,134.253 C100.695,134.124 100.097,134.089 99.519,134.108 C96.91,134.196 94.334,134.494 91.823,135.28 C90.062,135.83 88.257,136.234 86.497,136.783 C84.539,137.395 82.598,138.061 80.827,139.146 C80.278,139.483 79.641,139.677 79.049,139.948 C77.185,140.803 75.319,141.656 73.461,142.525 C72.717,142.873 71.939,143.183 71.272,143.648 C69.126,145.145 66.745,146.205 64.456,147.437 C63.264,148.078 62.04,148.367 60.715,148.342 C59.436,148.319 58.305,147.785 57.283,147.115 C56.094,146.334 56.199,144.893 57.401,143.921 C58.312,143.186 59.681,143.1 60.933,143.822 C60.576,143.822 60.406,143.825 60.236,143.822 C59.375,143.807 58.729,144.33 58.655,145.101 C58.575,145.939 59.162,146.853 59.942,146.967 C60.736,147.083 61.52,146.955 62.181,146.447 C63.187,145.674 63.372,144.819 62.688,143.766 C62.319,143.198 61.865,142.659 61.354,142.217 C60.778,141.719 60.07,141.441 59.264,141.582 C58.961,141.635 58.65,141.644 58.347,141.703 C56.479,142.064 55.396,143.137 55.137,145.038 C55.061,145.586 55.246,146.182 55.369,146.743 C55.962,149.417 58.172,150.841 60.906,150.57 C62.929,150.369 64.759,149.706 66.574,148.879 C67.537,148.439 68.557,148.121 69.524,147.689 C70.706,147.161 71.86,146.571 73.025,146.009 C73.18,145.935 73.333,145.852 73.494,145.8 C75.712,145.099 77.848,144.202 79.951,143.218 C81.125,142.668 82.339,142.207 83.521,141.678 C85.485,140.799 87.424,139.863 89.402,139.02 C90.467,138.566 91.591,138.25 92.694,137.884 C93.178,137.723 93.672,137.584 94.166,137.452 C96.02,136.957 97.898,136.586 99.825,136.612 C100.852,136.626 101.839,136.873 102.795,137.318 C103.562,137.676 104.064,138.236 104.465,138.92 C104.743,139.397 104.732,139.908 104.378,140.365 C103.585,141.388 102.066,141.793 100.862,141.301 C100.78,141.268 100.73,141.155 100.659,141.07 C100.994,140.397 101.327,139.731 101.65,139.085 C100.76,137.995 100.493,137.928 99.4,138.564 C99.079,138.751 98.786,138.994 98.501,139.235 C97.173,140.349 97.353,141.323 98.091,142.806 C98.229,143.083 98.563,143.359 98.862,143.444 C100.427,143.891 101.988,144.149 103.539,143.291 C105.888,141.993 106.4,139.521 105.4,137.277 C104.594,135.469 103.057,134.668 101.256,134.253 M164.077,137.342 C164.169,137.401 164.26,137.459 164.354,137.517 C164.514,137.122 165.02,136.945 165.042,136.461 C164.967,136.411 164.893,136.36 164.82,136.309 C164.572,136.654 164.324,136.998 164.077,137.342 M192.495,42.203 C192.406,41.975 192.318,41.747 192.23,41.52 C192.154,41.543 192.077,41.567 192.001,41.59 C192.062,41.822 192.124,42.055 192.184,42.287 C192.288,42.259 192.391,42.231 192.495,42.203 M199.007,47.796 C198.753,47.941 198.493,48.078 198.083,48.303 C198.493,48.63 198.751,48.898 199.062,49.075 C200.046,49.638 200.579,50.533 200.969,51.545 C201.693,53.435 201.482,55.314 200.881,57.183 C199.999,59.923 198.188,61.969 195.805,63.44 C194.139,64.469 192.951,65.891 191.837,67.4 C190.928,68.633 190.122,69.957 189.396,71.309 C188.596,72.803 188.288,74.458 188.117,76.144 C187.837,78.911 188.756,81.421 189.753,83.905 C190.128,84.843 190.68,85.71 191.145,86.612 C191.189,86.697 191.193,86.802 191.24,87 C190.924,87.114 190.622,87.268 190.303,87.329 C187.728,87.824 185.635,89.242 183.609,90.792 C183.529,90.854 183.454,90.93 183.391,91.01 C181.831,92.952 180.301,94.861 179.441,97.304 C178.702,99.408 178.449,101.562 178.027,103.704 C177.809,104.813 177.59,105.923 177.443,107.042 C177.245,108.534 177.092,110.032 176.967,111.532 C176.781,113.783 176.615,116.037 176.482,118.293 C176.393,119.827 176.393,121.366 176.312,122.901 C176.258,123.921 176.137,124.938 176.036,125.955 C175.952,126.803 175.853,127.649 175.766,128.496 C175.684,129.308 175.667,130.132 175.508,130.928 C175.437,131.289 175.094,131.596 174.846,131.968 C174.893,132.038 175.066,132.183 175.044,132.282 C174.883,132.979 174.689,133.668 174.49,134.356 C174.424,134.585 174.285,134.794 174.23,135.024 C173.71,137.248 172.471,139.083 171.079,140.827 C169.973,142.215 168.572,143.135 166.766,143.371 C165.37,143.554 164.089,143.132 162.913,142.515 C161.781,141.919 161.327,140.731 161.139,139.519 C160.893,137.941 161.628,135.95 163.292,135.08 C164.381,134.511 165.475,134.55 166.514,135.212 C166.885,135.449 167.212,135.759 167.549,136.046 C168.204,136.602 168.281,137.308 168.081,138.093 C167.714,139.535 166.46,140.159 165.163,139.435 C164.734,139.196 164.48,138.646 164.113,138.199 C163.622,139.412 163.945,140.894 164.878,141.673 C165.307,142.029 165.816,142.157 166.32,141.905 C166.867,141.631 167.398,141.309 167.885,140.94 C169.941,139.386 171.053,137.244 171.799,134.82 C172.611,132.185 173.178,129.524 173.357,126.771 C173.482,124.821 173.762,122.879 173.835,120.928 C173.915,118.811 173.796,116.688 173.835,114.569 C173.889,111.658 173.863,108.734 174.146,105.842 C174.382,103.437 174.646,101.004 175.449,98.682 C175.706,97.94 175.874,97.161 176.014,96.386 C176.411,94.186 177.41,92.324 179.018,90.776 C179.413,90.396 179.82,90.01 180.128,89.564 C181.484,87.601 183.421,86.641 185.697,86.216 C186.187,86.124 186.725,86.11 187.109,85.59 C186.43,84.146 185.758,82.692 185.066,81.249 C184.439,79.941 184.456,78.518 184.307,77.127 C184.161,75.754 184.178,74.388 184.736,73.081 C185.424,71.479 186.081,69.863 186.79,68.27 C186.967,67.872 187.262,67.512 187.555,67.181 C189.648,64.82 191.898,62.619 194.281,60.545 C195.962,59.079 197.447,57.423 198.613,55.497 C198.971,54.904 199.076,54.305 198.932,53.644 C198.667,52.408 198.493,51.141 197.508,50.193 C196.758,49.47 195.898,49.217 194.872,49.377 C193.846,49.537 193.361,50.222 193.038,51.108 C192.732,51.954 193.031,52.65 193.562,53.286 C193.618,53.353 193.743,53.362 193.91,53.426 C193.909,52.585 194.355,52.147 195.133,52.039 C195.865,51.936 196.344,52.356 196.303,53.092 C196.236,54.319 195.169,55.443 193.758,54.981 C191.98,54.401 191.122,53.269 190.954,51.336 C190.876,50.447 191.314,49.633 191.997,49.088 C192.766,48.474 193.615,47.916 194.686,47.944 C194.768,47.946 194.85,47.865 195.012,47.781 C194.307,47.221 193.652,46.692 192.988,46.176 C191.73,45.197 190.786,44.028 190.579,42.378 C190.421,41.131 190.574,39.988 191.527,39.06 C192.197,38.407 192.962,38.145 193.865,38.467 C194.874,38.828 195.805,39.253 196.352,40.305 C197.079,41.71 196.52,43.346 195.027,43.883 C194.743,43.986 194.46,44.093 194.178,44.204 C194.154,44.213 194.148,44.262 194.115,44.334 C194.855,45.186 195.816,45.673 196.919,45.86 C197.219,45.911 197.585,45.78 197.874,45.639 C198.577,45.295 199.242,44.873 199.943,44.526 C200.74,44.132 201.398,43.624 201.699,42.749 C201.921,42.104 202.18,41.469 202.363,40.814 C202.603,39.953 202.439,39.115 202.094,38.306 C200.893,35.485 198.829,33.456 196.268,31.85 C194.458,30.716 192.495,29.902 190.544,29.081 C189.102,28.474 187.57,28.051 186.049,27.66 C183.896,27.107 181.732,26.565 179.544,26.195 C177.419,25.836 175.258,25.689 173.111,25.472 C171.786,25.337 170.456,25.149 169.128,25.155 C166.84,25.164 164.551,25.165 162.277,25.611 C160.977,25.865 159.615,25.808 158.281,25.885 C156.745,25.973 155.206,26.046 153.669,26.14 C152.822,26.192 151.973,26.265 151.128,26.348 C150.824,26.378 150.523,26.459 150.223,26.528 C149.225,26.757 148.234,27.031 147.225,27.207 C146.699,27.299 146.137,27.175 145.6,27.229 C142.637,27.527 139.676,27.838 136.717,28.17 C135.118,28.35 133.527,28.613 131.926,28.783 C129.087,29.086 126.251,29.036 123.428,28.554 C123.091,28.496 122.749,28.443 122.408,28.438 C119.739,28.402 117.702,26.993 115.979,25.199 C115.189,24.378 114.831,23.123 114.35,22.033 C114.117,21.508 113.98,20.918 113.919,20.345 C113.803,19.284 113.959,18.258 114.533,17.317 C115.066,16.443 115.746,15.731 116.716,15.384 C117.674,15.041 118.511,14.464 119.574,14.294 C121.09,14.052 122.419,14.359 123.723,15.05 C124.652,15.543 125.383,16.235 125.981,17.1 C127.417,19.174 126.565,21.777 125.155,22.851 C123.768,23.907 121.579,23.688 120.686,22.35 C120.114,21.494 120.124,20.321 120.669,19.546 C120.953,19.139 121.334,18.918 121.798,18.954 C122.656,19.02 123.378,19.404 123.861,20.129 C123.974,20.297 123.92,20.579 123.93,20.809 C123.939,21.03 123.932,21.252 123.932,21.503 C125.076,21.058 125.445,20.296 125.002,19.331 C124.686,18.64 124.261,18.017 123.59,17.605 C123.211,17.372 122.817,17.156 122.462,16.889 C121.81,16.4 121.094,16.34 120.314,16.426 C119.215,16.546 118.168,16.806 117.152,17.255 C116.168,17.69 115.783,18.431 115.787,19.452 C115.794,20.586 116.21,21.581 116.739,22.561 C117.787,24.503 119.509,25.332 121.59,25.574 C124.388,25.899 127.18,25.939 129.993,25.625 C133.161,25.271 136.271,24.612 139.406,24.083 C141.495,23.731 143.611,23.527 145.714,23.249 C146.29,23.172 146.863,23.065 147.437,22.971 C147.639,22.938 147.848,22.845 148.04,22.876 C149.055,23.039 150.001,22.662 150.98,22.548 C152.475,22.375 153.982,22.301 155.486,22.212 C157.777,22.078 160.066,21.933 162.359,21.856 C164.378,21.788 166.4,21.802 168.423,21.788 C170.579,21.774 172.736,21.736 174.891,21.774 C176.051,21.795 177.21,21.916 178.363,22.059 C181.534,22.453 184.618,23.261 187.676,24.154 C189.902,24.804 192.115,25.474 194.051,26.869 C195.35,27.805 196.805,28.524 198.189,29.342 C198.365,29.446 198.577,29.531 198.693,29.685 C199.618,30.907 200.904,31.827 201.585,33.258 C202.174,34.492 202.854,35.684 203.479,36.902 C203.618,37.174 203.699,37.476 203.801,37.766 C204.415,39.494 204.092,41.133 203.359,42.747 C202.533,44.561 201.348,46.088 199.79,47.325 C199.553,47.513 199.271,47.645 199.007,47.796 M159.727,141.703 C159.424,141.644 159.113,141.635 158.809,141.582 C158.003,141.441 157.294,141.719 156.719,142.217 C156.208,142.659 155.755,143.198 155.385,143.766 C154.702,144.819 154.887,145.674 155.893,146.447 C156.553,146.955 157.337,147.083 158.133,146.967 C158.913,146.853 159.499,145.939 159.419,145.101 C159.346,144.33 158.699,143.807 157.839,143.822 C157.667,143.825 157.497,143.822 157.141,143.822 C158.393,143.1 159.762,143.186 160.673,143.921 C161.874,144.893 161.98,146.334 160.792,147.115 C159.77,147.785 158.637,148.319 157.359,148.342 C156.035,148.367 154.809,148.078 153.618,147.437 C151.327,146.205 148.947,145.145 146.801,143.648 C146.135,143.183 145.355,142.873 144.613,142.525 C142.756,141.656 140.889,140.803 139.025,139.948 C138.434,139.677 137.796,139.483 137.247,139.146 C135.477,138.061 133.535,137.395 131.577,136.783 C129.816,136.234 128.01,135.83 126.252,135.28 C123.741,134.494 121.164,134.196 118.556,134.108 C117.978,134.089 117.38,134.124 116.819,134.253 C115.018,134.668 113.479,135.469 112.674,137.277 C111.674,139.521 112.187,141.993 114.535,143.291 C116.087,144.149 117.646,143.891 119.213,143.444 C119.51,143.359 119.844,143.083 119.982,142.806 C120.722,141.323 120.902,140.349 119.574,139.235 C119.286,138.994 118.994,138.751 118.673,138.564 C117.58,137.928 117.313,137.995 116.424,139.085 C116.746,139.731 117.078,140.397 117.416,141.07 C117.343,141.155 117.295,141.268 117.213,141.301 C116.007,141.793 114.49,141.388 113.697,140.365 C113.34,139.908 113.33,139.397 113.61,138.92 C114.009,138.236 114.511,137.676 115.279,137.318 C116.235,136.873 117.222,136.626 118.25,136.612 C120.175,136.586 122.055,136.957 123.909,137.452 C124.403,137.584 124.896,137.723 125.381,137.884 C126.482,138.25 127.606,138.566 128.671,139.02 C130.65,139.863 132.589,140.799 134.553,141.678 C135.736,142.207 136.949,142.668 138.122,143.218 C140.227,144.202 142.363,145.099 144.579,145.8 C144.742,145.852 144.893,145.935 145.049,146.009 C146.215,146.571 147.368,147.161 148.549,147.689 C149.516,148.121 150.536,148.439 151.501,148.879 C153.314,149.706 155.145,150.369 157.169,150.57 C159.902,150.841 162.113,149.417 162.704,146.743 C162.829,146.182 163.012,145.586 162.938,145.038 C162.676,143.137 161.594,142.064 159.727,141.703 M110.115,139.417 C110.097,139.934 109.445,140.652 109.029,140.614 C108.542,140.57 108.156,140.069 108.171,139.501 C108.19,138.7 108.607,138.118 109.138,138.151 C109.64,138.182 110.135,138.825 110.115,139.417" fill="#2E91C3"/>
    <path d="M66.346,161.633 C64.723,161.633 64.74,163.771 66.365,163.771 C67.988,163.771 67.971,161.633 66.346,161.633 M151.297,161.453 C149.673,161.453 149.69,163.591 151.315,163.591 C152.939,163.591 152.922,161.453 151.297,161.453 M144.214,159.677 C139.884,159.677 139.93,165.377 144.264,165.377 C148.593,165.377 148.547,159.677 144.214,159.677 M73.362,165.925 C69.028,165.925 68.983,160.225 73.312,160.225 C77.646,160.225 77.691,165.925 73.362,165.925" fill="#2E91C3"/>
    <g>
      <path d="M42.241,61.802 C42.979,64.314 44.851,66.043 47.784,67.072 C50.717,68.103 54.128,68.121 58.121,67.206 C62.078,66.299 65.15,64.772 67.418,62.514 C69.684,60.255 70.663,57.911 70.252,55.429 C69.837,52.924 68.116,51.019 65.011,49.805 C61.905,48.591 58.18,48.43 53.947,49.402 C49.733,50.37 46.511,52.11 44.349,54.496 C42.187,56.883 41.516,59.333 42.241,61.802 M35.789,63.779 C34.718,60.483 35.682,57.095 38.878,53.709 C42.076,50.322 46.924,47.757 53.297,46.296 C59.731,44.82 65.256,45.011 69.659,46.66 C74.062,48.31 76.424,50.963 76.899,54.442 C77.383,57.988 75.814,61.16 72.382,64.075 C68.952,66.99 64.443,68.992 58.718,70.307 C55.07,71.145 51.606,71.469 48.254,71.259 C44.902,71.048 42.158,70.281 40.015,68.886 C37.872,67.49 36.446,65.802 35.789,63.779" fill="#2E91C3"/>
      <path d="M90.336,56.919 C90.409,57.832 90.793,58.678 91.478,59.463 C92.163,60.248 93.198,60.874 94.58,61.353 C95.961,61.834 97.547,62.029 99.356,61.953 C101.89,61.846 103.963,61.278 105.61,60.214 C107.256,59.15 108.094,57.721 108.087,55.902 C108.081,54.13 107.186,52.744 105.371,51.776 C103.556,50.808 101.475,50.363 99.165,50.457 C96.698,50.558 94.555,51.224 92.773,52.43 C90.993,53.634 90.193,55.141 90.336,56.919 M86.291,69.951 C85.54,62.689 85.165,59.058 84.414,51.796 C82.507,51.993 81.555,52.101 79.652,52.337 C79.509,51.186 79.438,50.61 79.296,49.459 C83.467,48.943 85.557,48.73 89.742,48.397 C89.825,49.436 89.867,49.956 89.95,50.996 C92.572,48.871 95.936,47.692 99.939,47.543 C103.981,47.392 107.351,48.167 109.965,49.779 C112.58,51.392 113.819,53.51 113.766,56.072 C113.71,58.759 112.29,60.84 109.588,62.387 C106.888,63.934 103.877,64.749 100.473,64.877 C96.942,65.011 93.781,64.366 90.899,62.897 C91.109,65.531 91.214,66.848 91.424,69.481 C93.457,69.319 94.475,69.25 96.51,69.135 C96.575,70.292 96.608,70.871 96.673,72.029 C90.743,72.364 87.781,72.633 81.878,73.373 C81.734,72.223 81.661,71.648 81.517,70.497 C83.425,70.258 84.38,70.149 86.291,69.951" fill="#2E91C3"/>
      <path d="M141.425,56.654 C141.203,55.445 140.329,54.256 138.78,53.109 C137.233,51.963 135.221,51.249 132.778,51.004 C130.549,50.78 128.598,51.043 126.955,51.773 C125.314,52.502 124.284,53.542 123.852,54.866 C130.899,55.316 134.419,55.673 141.425,56.654 M146.651,59.844 C137.437,58.327 132.795,57.801 123.501,57.216 C123.747,58.767 124.668,60.066 126.243,61.138 C127.817,62.21 129.864,62.858 132.406,63.122 C136.098,63.506 139.119,62.988 141.549,61.488 C143.363,62.261 144.265,62.657 146.054,63.467 C144.295,64.649 142.171,65.406 139.67,65.771 C137.169,66.136 134.625,66.18 132.006,65.909 C127.936,65.487 124.524,64.448 121.688,62.701 C118.854,60.955 117.435,58.779 117.534,56.094 C117.628,53.546 119.184,51.489 122.288,50.013 C125.389,48.537 128.958,47.968 132.891,48.36 C136.748,48.745 140.15,49.985 143.012,52.019 C145.874,54.054 147.053,56.688 146.651,59.844" fill="#2E91C3"/>
      <path d="M161.735,53.484 C161.559,54.267 161.471,54.659 161.296,55.442 C165.155,54.762 168.59,54.842 171.508,55.625 C173.322,56.112 174.752,56.782 175.792,57.612 C176.828,58.442 177.416,59.271 177.565,60.084 C177.714,60.898 177.58,61.984 177.169,63.342 C176.231,66.441 175.762,67.991 174.824,71.091 C176.592,71.626 177.474,71.903 179.234,72.474 C178.876,73.577 178.696,74.129 178.338,75.232 C174.576,74.01 172.685,73.441 168.886,72.389 C170.045,68.203 170.625,66.11 171.784,61.924 C172.12,60.712 172.028,59.834 171.503,59.294 C170.975,58.753 170.251,58.359 169.334,58.119 C166.929,57.49 164.019,57.495 160.68,58.187 C159.901,61.655 159.512,63.389 158.734,66.857 C160.572,67.27 161.489,67.486 163.32,67.936 C163.043,69.062 162.904,69.626 162.627,70.752 C156.924,69.347 154.053,68.74 148.289,67.714 C148.493,66.572 148.594,66.001 148.797,64.859 C150.68,65.194 151.621,65.372 153.498,65.747 C154.345,61.508 154.768,59.389 155.615,55.15 C153.649,54.757 152.664,54.571 150.691,54.22 L151.2,51.366 C155.428,52.118 157.536,52.542 161.735,53.484" fill="#2E91C3"/>
      <path d="M54.253,106.47 C52.581,100.893 51.745,98.104 50.074,92.527 C48.674,92.947 47.976,93.163 46.582,93.608 C46.286,92.683 46.139,92.22 45.843,91.295 C54.489,88.534 58.876,87.396 67.709,85.605 C68.174,87.897 68.406,89.043 68.871,91.335 C67.502,91.613 66.819,91.758 65.454,92.059 C65.159,90.724 65.011,90.056 64.717,88.721 C60.513,89.65 58.42,90.17 54.258,91.322 C54.871,93.538 55.178,94.646 55.791,96.862 C59.277,95.898 61.029,95.455 64.546,94.652 C64.762,95.599 64.871,96.073 65.087,97.02 C61.613,97.813 59.883,98.25 56.439,99.203 C57.119,101.662 57.459,102.891 58.14,105.35 C59.461,104.984 60.122,104.807 61.448,104.466 C61.69,105.407 61.812,105.877 62.054,106.818 C57.907,107.886 55.844,108.48 51.748,109.788 C51.452,108.862 51.305,108.399 51.009,107.474 C52.304,107.061 52.953,106.86 54.253,106.47" fill="#2E91C3"/>
      <path d="M75.878,101.413 C75.267,97.949 74.962,96.218 74.352,92.754 C72.813,93.025 72.045,93.169 70.511,93.47 C70.329,92.544 70.238,92.082 70.056,91.156 C72.818,90.613 74.203,90.366 76.978,89.92 C77.171,91.122 77.267,91.723 77.46,92.925 C77.756,92.077 78.241,91.335 78.921,90.705 C79.599,90.075 80.353,89.617 81.178,89.333 C82.003,89.05 83.154,88.81 84.628,88.632 C85.03,88.583 85.231,88.559 85.633,88.512 C85.757,89.577 85.819,90.109 85.942,91.174 C85.641,91.209 85.49,91.226 85.189,91.263 C83.271,91.493 81.858,91.825 80.956,92.226 C80.053,92.627 79.428,93.218 79.086,93.99 C78.744,94.762 78.719,96.06 79.005,97.88 C79.189,99.054 79.28,99.642 79.464,100.816 C81.059,100.566 81.858,100.45 83.456,100.234 C83.583,101.169 83.646,101.636 83.772,102.572 C79.312,103.174 77.088,103.542 72.662,104.412 C72.48,103.486 72.389,103.023 72.207,102.097 C73.673,101.809 74.408,101.672 75.878,101.413" fill="#2E91C3"/>
      <path d="M90.474,83.607 C90.436,83.181 90.625,82.79 91.046,82.437 C91.467,82.083 92.025,81.877 92.718,81.823 C93.368,81.772 93.941,81.883 94.433,82.157 C94.923,82.43 95.182,82.791 95.211,83.236 C95.241,83.682 95.033,84.076 94.591,84.419 C94.148,84.763 93.607,84.959 92.968,85.009 C92.313,85.06 91.746,84.948 91.261,84.673 C90.777,84.398 90.513,84.042 90.474,83.607 M92.396,99.241 C92.091,95.737 91.938,93.985 91.633,90.482 C90.439,90.586 89.843,90.642 88.65,90.764 C88.554,89.826 88.506,89.356 88.41,88.418 C91.145,88.138 92.514,88.021 95.255,87.835 C95.558,92.285 95.709,94.51 96.011,98.96 C97.154,98.883 97.725,98.848 98.868,98.788 C98.918,99.73 98.943,100.201 98.993,101.143 C95.305,101.338 93.462,101.481 89.786,101.857 C89.69,100.919 89.642,100.45 89.546,99.511 C90.685,99.394 91.255,99.34 92.396,99.241" fill="#2E91C3"/>
      <path d="M105.15,94.15 C105.179,95.639 105.786,96.768 106.951,97.556 C108.116,98.345 109.488,98.741 111.087,98.759 C112.637,98.777 114.017,98.389 115.253,97.588 C116.489,96.787 117.15,95.651 117.214,94.164 C117.277,92.667 116.694,91.508 115.44,90.703 C114.188,89.899 112.751,89.482 111.154,89.464 C109.435,89.445 107.986,89.899 106.832,90.809 C105.677,91.72 105.125,92.839 105.15,94.15 M123.951,99.117 C123.877,100.057 123.839,100.528 123.765,101.468 C121.03,101.252 119.66,101.168 116.92,101.052 C116.954,100.26 116.971,99.863 117.005,99.071 C115.142,100.464 112.96,101.132 110.401,101.111 C108.032,101.093 105.951,100.519 104.111,99.365 C102.27,98.212 101.281,96.549 101.193,94.337 C101.105,92.114 101.997,90.316 103.928,88.984 C105.859,87.652 108.1,86.982 110.595,87.002 C113.236,87.024 115.533,87.821 117.418,89.353 C117.509,87.217 117.555,86.149 117.646,84.013 C116.118,83.948 115.354,83.923 113.825,83.886 C113.848,82.943 113.859,82.471 113.882,81.528 C117.007,81.603 118.569,81.669 121.69,81.862 C121.27,88.671 121.06,92.075 120.641,98.884 C121.965,98.965 122.628,99.012 123.951,99.117" fill="#2E91C3"/>
      <path d="M137.919,98.047 C136.48,96.925 134.931,96.258 133.305,96.052 C132.287,95.924 131.408,96.035 130.678,96.383 C129.946,96.732 129.55,97.247 129.477,97.923 C129.41,98.552 129.648,99.109 130.19,99.601 C130.73,100.092 131.502,100.397 132.509,100.523 C134.25,100.741 135.959,100.436 137.682,99.605 C137.777,98.982 137.824,98.67 137.919,98.047 M144.14,101.808 C143.966,102.735 143.879,103.199 143.704,104.126 C141.235,103.661 139.997,103.45 137.518,103.068 C137.618,102.417 137.668,102.092 137.768,101.441 C135.847,102.406 133.851,102.754 131.733,102.495 C130.085,102.294 128.701,101.741 127.552,100.824 C126.406,99.907 125.874,98.835 125.985,97.593 C126.097,96.343 126.854,95.36 128.28,94.67 C129.707,93.98 131.385,93.744 133.29,93.982 C135.064,94.204 136.728,94.822 138.257,95.826 C138.337,95.296 138.377,95.031 138.458,94.501 C138.561,93.82 138.548,93.281 138.42,92.886 C138.292,92.491 137.91,92.095 137.272,91.701 C136.637,91.309 135.765,91.037 134.665,90.894 C132.77,90.647 131.331,91.021 130.374,91.984 C128.966,91.561 128.258,91.355 126.838,90.957 C128.627,89.009 131.557,88.227 135.536,88.756 C136.997,88.95 138.238,89.27 139.259,89.704 C140.277,90.136 141.009,90.612 141.456,91.124 C141.901,91.636 142.171,92.157 142.264,92.682 C142.356,93.208 142.31,94.011 142.124,95.094 C141.702,97.559 141.491,98.791 141.069,101.256 C142.299,101.467 142.913,101.577 144.14,101.808" fill="#2E91C3"/>
      <path d="M152.666,105.798 C151.332,100.99 150.593,98.588 148.972,93.799 C147.707,93.539 147.074,93.414 145.806,93.175 C145.981,92.248 146.068,91.785 146.243,90.857 C150.06,91.577 151.963,91.983 155.751,92.888 C155.531,93.806 155.422,94.265 155.202,95.182 C154.296,94.966 153.842,94.86 152.934,94.654 C153.909,97.943 154.364,99.59 155.211,102.884 C157.473,100.364 158.633,99.119 161.009,96.662 C160.015,96.393 159.517,96.261 158.52,96.005 C158.755,95.091 158.872,94.634 159.107,93.721 C162.804,94.671 164.645,95.191 168.305,96.32 C168.026,97.221 167.887,97.672 167.609,98.574 C166.498,98.231 165.942,98.064 164.827,97.738 C159.188,103.26 156.518,106.118 151.489,111.988 C149.198,111.436 148.049,111.18 145.745,110.703 C145.933,109.796 146.027,109.342 146.214,108.435 C147.588,108.719 148.274,108.867 149.643,109.177 C150.835,107.816 151.44,107.14 152.666,105.798" fill="#2E91C3"/>
    </g>
    <path d="M79.549,166.402 L79.549,163.958 L80.8,163.958 L80.8,164.194 C80.845,164.528 81.025,164.803 81.341,165.018 C81.658,165.235 82.032,165.342 82.464,165.342 C82.915,165.342 83.276,165.264 83.546,165.106 C83.816,164.95 83.951,164.731 83.951,164.451 C83.951,164.182 83.839,163.983 83.616,163.855 C83.393,163.728 82.95,163.611 82.287,163.503 C81.305,163.337 80.605,163.069 80.186,162.698 C79.766,162.328 79.556,161.847 79.556,161.258 C79.556,160.665 79.785,160.167 80.241,159.767 C80.697,159.366 81.299,159.166 82.044,159.166 C82.716,159.166 83.296,159.304 83.782,159.581 L83.782,159.276 L85.026,159.276 L85.026,161.639 L83.782,161.639 L83.782,161.205 C83.404,160.622 82.854,160.329 82.133,160.329 C81.765,160.329 81.461,160.409 81.224,160.569 C80.986,160.728 80.867,160.94 80.867,161.205 C80.867,161.476 80.976,161.66 81.194,161.762 C81.413,161.862 81.882,161.968 82.604,162.081 C83.296,162.189 83.818,162.314 84.172,162.459 C84.525,162.604 84.818,162.845 85.051,163.181 C85.285,163.516 85.401,163.908 85.401,164.356 C85.401,165.018 85.147,165.545 84.639,165.935 C84.131,166.325 83.472,166.52 82.663,166.52 C81.902,166.52 81.281,166.348 80.8,166.002 L80.8,166.402 z" fill="#2E91C3"/>
    <path d="M88.742,156.855 C88.742,156.63 88.821,156.434 88.981,156.266 C89.141,156.1 89.343,156.016 89.589,156.016 C89.819,156.016 90.018,156.096 90.185,156.258 C90.352,156.421 90.435,156.618 90.435,156.855 C90.435,157.09 90.352,157.29 90.185,157.456 C90.018,157.618 89.819,157.702 89.589,157.702 C89.353,157.702 89.153,157.618 88.989,157.451 C88.824,157.285 88.742,157.086 88.742,156.855 M88.941,165.158 L88.941,160.521 L87.837,160.521 L87.837,159.277 L90.339,159.277 L90.339,165.158 L91.444,165.158 L91.444,166.402 L87.837,166.402 L87.837,165.158 z" fill="#2E91C3"/>
    <path d="M96.035,162.942 C96.035,163.335 96.116,163.71 96.278,164.068 C96.44,164.427 96.697,164.728 97.051,164.971 C97.404,165.214 97.819,165.334 98.295,165.334 C98.963,165.334 99.513,165.112 99.947,164.665 C100.382,164.218 100.599,163.605 100.599,162.824 C100.599,162.065 100.372,161.47 99.918,161.043 C99.464,160.616 98.948,160.402 98.368,160.402 C97.75,160.402 97.207,160.635 96.738,161.099 C96.269,161.563 96.035,162.176 96.035,162.942 M94.658,168.352 L94.658,160.52 L93.459,160.52 L93.459,159.276 L96.057,159.276 L96.057,160.395 C96.754,159.577 97.598,159.166 98.589,159.166 C99.59,159.166 100.419,159.51 101.074,160.196 C101.729,160.884 102.056,161.777 102.056,162.876 C102.056,164.03 101.701,164.94 100.989,165.607 C100.277,166.275 99.467,166.608 98.56,166.608 C97.618,166.608 96.784,166.246 96.057,165.518 L96.057,168.352 L97.441,168.352 L97.441,169.596 L93.356,169.596 L93.356,168.352 z" fill="#2E91C3"/>
    <path d="M106.199,162.913 C106.199,163.634 106.409,164.223 106.828,164.68 C107.248,165.136 107.784,165.364 108.437,165.364 C109.075,165.364 109.624,165.135 110.086,164.677 C110.547,164.217 110.778,163.627 110.778,162.906 C110.778,162.175 110.547,161.587 110.086,161.143 C109.624,160.699 109.09,160.476 108.481,160.476 C107.872,160.476 107.34,160.696 106.884,161.136 C106.427,161.575 106.199,162.168 106.199,162.913 M113.434,159.277 L113.434,160.521 L112.154,160.521 L112.154,165.828 C112.154,166.545 112.117,167.076 112.044,167.422 C111.97,167.768 111.792,168.122 111.51,168.482 C111.228,168.843 110.805,169.146 110.24,169.391 C109.676,169.637 109.046,169.759 108.348,169.759 C107.298,169.759 106.361,169.442 105.536,168.809 L106.449,167.793 C107.068,168.275 107.74,168.515 108.466,168.515 C108.869,168.515 109.241,168.438 109.585,168.284 C109.929,168.129 110.185,167.941 110.354,167.72 C110.524,167.499 110.633,167.29 110.682,167.091 C110.731,166.892 110.756,166.557 110.756,166.086 L110.756,165.438 C110.535,165.718 110.189,165.983 109.718,166.233 C109.246,166.483 108.731,166.608 108.172,166.608 C107.151,166.608 106.319,166.255 105.676,165.548 C105.034,164.842 104.712,163.973 104.712,162.942 C104.712,161.815 105.067,160.902 105.776,160.209 C106.485,159.514 107.305,159.166 108.238,159.166 C109.18,159.166 110.019,159.542 110.756,160.292 L110.756,159.277 z" fill="#2E91C3"/>
    <path d="M120.109,163.752 C119.505,163.281 118.894,163.045 118.276,163.045 C117.889,163.045 117.565,163.159 117.304,163.384 C117.045,163.611 116.914,163.902 116.914,164.26 C116.914,164.594 117.029,164.874 117.257,165.099 C117.486,165.326 117.796,165.438 118.188,165.438 C118.865,165.438 119.505,165.154 120.109,164.584 z M122.693,165.158 L122.693,166.402 L120.249,166.402 L120.249,165.533 C119.572,166.191 118.816,166.52 117.982,166.52 C117.334,166.52 116.771,166.309 116.293,165.887 C115.815,165.466 115.575,164.925 115.575,164.267 C115.575,163.605 115.829,163.056 116.337,162.618 C116.845,162.183 117.458,161.963 118.173,161.963 C118.841,161.963 119.486,162.165 120.109,162.567 L120.109,161.86 C120.109,161.498 120.075,161.218 120.006,161.021 C119.938,160.825 119.776,160.649 119.525,160.491 C119.271,160.335 118.942,160.255 118.534,160.255 C117.833,160.255 117.325,160.535 117.01,161.095 L115.67,160.741 C116.265,159.633 117.29,159.078 118.747,159.078 C119.283,159.078 119.745,159.15 120.136,159.296 C120.526,159.44 120.816,159.627 121.007,159.855 C121.198,160.083 121.328,160.329 121.394,160.594 C121.461,160.859 121.493,161.282 121.493,161.86 L121.493,165.158 z" fill="#2E91C3"/>
    <path d="M124.848,160.52 L124.848,159.276 L125.775,159.276 L125.775,158.179 L127.174,156.898 L127.174,159.276 L128.492,159.276 L128.492,160.52 L127.174,160.52 L127.174,163.98 C127.174,164.535 127.205,164.876 127.267,165.007 C127.327,165.137 127.482,165.202 127.726,165.202 C127.987,165.202 128.241,165.153 128.492,165.054 L128.492,166.328 C128.134,166.456 127.776,166.519 127.417,166.519 C126.99,166.519 126.644,166.425 126.379,166.237 C126.114,166.047 125.948,165.811 125.879,165.526 C125.811,165.241 125.775,164.751 125.775,164.053 L125.775,160.52 z" fill="#2E91C3"/>
    <path d="M137.089,162.177 C136.992,161.676 136.73,161.224 136.309,160.82 C135.887,160.415 135.368,160.212 134.756,160.212 C134.195,160.212 133.717,160.394 133.32,160.761 C132.923,161.126 132.68,161.598 132.59,162.177 z M138.532,163.193 L132.54,163.193 C132.628,163.851 132.889,164.384 133.32,164.79 C133.753,165.198 134.305,165.401 134.976,165.401 C135.954,165.401 136.727,165.01 137.295,164.223 L138.532,164.768 C138.13,165.392 137.607,165.855 136.964,166.156 C136.322,166.458 135.648,166.608 134.947,166.608 C133.857,166.608 132.926,166.268 132.154,165.59 C131.381,164.909 130.993,163.994 130.993,162.839 C130.993,161.746 131.37,160.845 132.124,160.138 C132.877,159.431 133.743,159.078 134.719,159.078 C135.676,159.078 136.542,159.422 137.322,160.113 C138.098,160.802 138.502,161.83 138.532,163.193" fill="#2E91C3"/>
    <path d="M115.986,117.211 C114.217,116.2 114.197,114.876 111.955,113.619 L113.569,107.786 L110.276,112.744 C109.559,112 107.898,111.651 106.737,113.074 C105.076,115.11 104.15,114.531 104.155,114.479 C104.109,114.902 104.842,115.911 105.998,116.056 C105.612,116.778 103.763,116.231 103.758,116.2 C103.792,117.014 104.768,117.823 105.658,118.111 C104.721,118.908 103.157,118.017 103.157,118.017 C103.47,119.75 104.731,120.383 104.724,120.388 C103.999,120.882 102.314,120.039 102.314,120.039 C102.338,121.483 104.002,122.641 104.023,122.651 C103.446,123.313 102.061,122.552 102.059,122.551 C102.276,125.223 105.323,126.177 106.969,126.499 C110.086,127.108 111.362,126.968 111.534,126.966 C111.536,126.823 111.637,121.623 111.941,120.948 C112.254,120.255 112.832,120.413 113.48,120.421 C114.587,120.436 116.299,121.092 116.981,119.984 C117.755,118.727 116.926,117.748 115.986,117.211" fill="#2E91C3"/>
  </g>
</svg>
